<?xml version="1.0" encoding="UTF-8"?>
<svg id="Layer_2" data-name="Layer 2" xmlns="http://www.w3.org/2000/svg" viewBox="0 0 699.73 795.4">
  <defs>
    <style>
      .cls-1 {
        fill: #fff;
      }

      .cls-2 {
        fill: #f3a405;
      }
    </style>
  </defs>
  <g id="Layer_2-2" data-name="Layer 2">
    <g>
      <g>
        <g>
          <path class="cls-2" d="M340.97,772.87h0c-181.36-9.3-318.49-201.23-318.49-367.14l4.41-294.97,51.2-3.59c83.64-5.86,165.12-29.24,239.15-68.61l30.97-16.47,38.97,20.38c71.55,37.42,150,59.79,230.53,65.72l59.34,4.38v307.42c-10.35,179.37-147.85,343.58-336.08,352.88Z"/>
          <path class="cls-2" d="M340.97,750.37c-4.07,0-8.21-.52-12.27-.91-2.25-.22-4.5-.49-6.75-.74-4.75-.54,4.47.66,1.28.18-1.56-.23-3.12-.45-4.68-.7-8.84-1.41-17.61-3.25-26.28-5.52-8.82-2.31-17.53-5.05-26.08-8.2-3.95-1.45-7.81-3.23-11.77-4.62,6.81,2.4-.33-.18-1.95-.91-2.43-1.09-4.84-2.22-7.24-3.37-16.25-7.83-31.8-17.11-46.52-27.55-3.44-2.44-6.72-5.31-10.27-7.57,5.86,3.74-.4-.35-1.8-1.47-2.1-1.69-4.19-3.4-6.25-5.13-6.9-5.8-13.59-11.86-20.05-18.14-6.81-6.63-13.38-13.51-19.69-20.62-2.71-3.05-5.38-6.15-7.99-9.28-1.46-1.74-2.9-3.5-4.32-5.27-.86-1.06-1.71-2.13-2.55-3.2-.96-1.22-3.38-4.97.17.25-5.11-7.51-10.84-14.59-15.9-22.15s-10.34-16.03-15.1-24.29c-4.52-7.85-8.78-15.84-12.79-23.96-2-4.04-3.93-8.12-5.79-12.23-.93-2.05-1.84-4.1-2.74-6.17-.36-.82-.7-1.66-1.07-2.48,2.81,6.25.51,1.21-.07-.21-6.81-16.64-12.55-33.73-17.05-51.14-2.24-8.66-4.17-17.39-5.78-26.19-.74-4.03-1.4-8.08-2-12.14-.23-1.56-.63-6.28.09.88-.09-.85-.22-1.7-.32-2.55-.31-2.54-.6-5.09-.86-7.64-1.09-10.86-1.71-21.81-1.59-32.73.13-11.7.35-23.4.53-35.11.74-49.77,1.49-99.54,2.23-149.32.54-35.87,1.76-71.8,1.61-107.67,0-.58.02-1.17.03-1.75l-22.5,22.5c35.61-2.5,71.21-4.47,106.53-9.92,64.28-9.91,126.75-30.54,184.74-59.94,13.92-7.06,27.63-14.56,41.41-21.89h-22.71c39.83,20.83,79.44,41.43,121.97,56.41,55.29,19.46,112.56,29.35,170.88,33.65,15.78,1.16,31.56,2.33,47.35,3.49l-22.5-22.5c0,30.18,0,60.36,0,90.54,0,52.25,0,104.49,0,156.74,0,16.89,0,33.79,0,50.68,0,3.08.07,6.17,0,9.24-.15,6.24-.86,12.53-1.52,18.73-.24,2.28-.51,4.55-.79,6.82-.2,1.58-.8,5.18.18-1.22-.14.9-.25,1.81-.38,2.72-.72,4.97-1.54,9.93-2.46,14.88-3.44,18.58-8.24,36.9-14.32,54.79-1.39,4.08-2.84,8.14-4.36,12.17-.8,2.12-1.62,4.24-2.45,6.34-.68,1.71-4.52,9.96-1.35,3.43-4.16,8.54-7.74,17.34-12.09,25.81-8.44,16.45-18.04,32.3-28.71,47.39-2.6,3.67-5.28,7.28-7.98,10.87s2.58-3.27.64-.82c-.7.88-1.39,1.77-2.09,2.65-1.68,2.11-3.38,4.2-5.1,6.27-5.73,6.9-11.71,13.59-17.92,20.06s-13.28,13.32-20.3,19.59c-3.34,2.98-6.73,5.9-10.18,8.76-1.72,1.43-3.46,2.84-5.21,4.24-.7.56-1.41,1.11-2.11,1.67-1.87,1.46-1.41,1.11,1.37-1.05-.71.55-1.42,1.09-2.14,1.63-14.68,11.08-30.22,21.02-46.47,29.64-8.38,4.44-17.29,7.85-25.66,12.24.34-.18,5.13-2.11,1.61-.69-1.26.51-2.52,1.03-3.79,1.53-2.11.84-4.23,1.66-6.36,2.45-4.27,1.6-8.58,3.1-12.91,4.52-9.18,3-18.5,5.6-27.91,7.79-4.53,1.05-9.08,2.01-13.65,2.87-4.97.93-10.42,1.15-15.28,2.5.39-.11,5.68-.71,1.77-.24-1.41.17-2.82.35-4.23.51-2.13.24-4.25.46-6.38.66-5.01.47-10.03.82-15.05,1.08-11.74.6-23.06,9.92-22.5,22.5.52,11.67,9.91,23.15,22.5,22.5,82.19-4.24,159.49-36.57,221.36-90.62,59.02-51.56,101.72-121.81,122.76-197.12,5.59-20.01,9.32-40.34,11.97-60.93,1.22-9.48,2.49-19.16,2.49-28.73v-39.1c0-51.67,0-103.34,0-155.01,0-36.47.4-72.97,0-109.44,0-.62,0-1.23,0-1.85,0-12.82-10.34-21.6-22.5-22.5-12.98-.96-25.95-1.91-38.93-2.87-18.11-1.34-36.65-1.88-54.53-5.02.74.13,4.88.69.62.07-.89-.13-1.78-.26-2.68-.39-1.78-.26-3.56-.53-5.35-.81-4.45-.69-8.89-1.44-13.32-2.23-7.97-1.43-15.91-3.02-23.82-4.78-15.8-3.51-31.46-7.66-46.92-12.46-15.75-4.88-31.31-10.42-46.6-16.61-1.67-.68-3.33-1.36-5-2.05-3.9-1.6-.33-.09.39.17-.84-.31-1.66-.71-2.48-1.07-3.86-1.67-7.71-3.37-11.53-5.12-7.39-3.37-14.71-6.9-21.95-10.58-13.5-6.85-26.86-14-40.27-21.01-1.68-.88-3.35-1.82-5.06-2.65-8.53-4.09-16.54-3.35-24.68.98l-20.78,11.05c-7.82,4.16-15.64,8.32-23.57,12.26-7.28,3.61-14.63,7.07-22.05,10.38-1.92.86-3.85,1.7-5.78,2.54-.83.36-1.66.71-2.48,1.07-2,.86-.87,1.03-.63.27l1.03-.43c-.83.35-1.66.69-2.5,1.03-.83.34-1.67.69-2.5,1.02-2.23.91-4.46,1.8-6.69,2.67-30.44,11.95-61.87,21.41-93.85,28.23-7.93,1.69-15.89,3.22-23.88,4.59-3.85.66-7.71,1.28-11.57,1.86-2.08.31-4.16.61-6.25.91-.49.07-3.53.49-.58.09s-.93.11-1.48.18c-11.7,1.48-23.44,2.58-35.2,3.4-15.03,1.06-30.06,2.11-45.09,3.16l-4.17.29c-12.28.86-22.31,9.61-22.5,22.5-.46,31.07-.93,62.14-1.39,93.21-.77,51.58-1.54,103.15-2.31,154.73-.22,14.43-.43,28.85-.65,43.28-.38,25.4,2.55,50.93,7.6,75.8,15.29,75.33,53.15,146.53,104.84,203.17s121.45,100.24,198.13,111.25c9.91,1.42,20.31,3.18,30.37,3.18,11.77,0,23.04-10.35,22.5-22.5s-9.89-22.5-22.5-22.5Z"/>
        </g>
        <g>
          <path class="cls-1" d="M343.02,695.43h0c-139.11-7.14-244.3-154.35-244.3-281.61l3.38-226.25,39.27-2.75c64.16-4.5,126.65-22.43,183.44-52.63l23.76-12.64,29.89,15.63c54.88,28.7,115.06,45.86,176.82,50.41l45.52,3.36v235.8c-7.94,137.58-113.4,263.54-257.79,270.67Z"/>
          <path class="cls-2" d="M343.02,672.93c-2.95,0-5.94-.37-8.88-.65-1.81-.17-3.61-.4-5.41-.59-2.54-.26,2.84.41,2.62.37-1.33-.22-2.68-.38-4.02-.6-6.64-1.05-13.24-2.43-19.75-4.12-6.9-1.79-13.71-3.92-20.4-6.38-1.46-.54-2.92-1.09-4.37-1.66-.71-.28-6.59-2.7-2.87-1.13,3.43,1.44-1.26-.57-2.2-1-1.82-.82-3.64-1.67-5.44-2.54-12.46-6-24.39-13.11-35.67-21.11-2.73-1.93-5.32-4.16-8.12-5.99,5.56,3.63.51.36-.74-.65-1.4-1.13-2.79-2.28-4.17-3.43-5.53-4.65-10.88-9.51-16.04-14.56-5.02-4.92-9.87-10.01-14.53-15.27-2.26-2.55-4.48-5.14-6.66-7.76-1.02-1.23-2.02-2.46-3.02-3.7-.57-.71-1.14-1.42-1.7-2.14-2.15-2.72-.35-.86.58.78-3.42-6-8.46-11.45-12.3-17.23s-7.62-11.87-11.14-17.98c-3.62-6.29-7.02-12.7-10.21-19.21-1.39-2.84-2.74-5.7-4.04-8.58-.74-1.64-1.46-3.3-2.19-4.94-.58-1.31-1.2-3.82.68,1.65-.36-1.06-.86-2.08-1.28-3.12-5.18-12.77-9.52-25.88-12.93-39.23-1.67-6.56-3.11-13.17-4.31-19.83-.57-3.19-1.04-6.4-1.54-9.6-.46-2.9.59,5.07.29,2.15-.07-.64-.16-1.28-.24-1.92-.23-1.91-.44-3.82-.62-5.74-.79-8.1-1.22-16.25-1.14-24.39.09-9.07.27-18.14.41-27.2.57-38.2,1.14-76.39,1.71-114.59.41-27.34,1.54-54.78,1.23-82.12,0-.46.01-.91.02-1.37l-22.5,22.5c27.69-1.94,55.34-3.53,82.8-7.75,49.86-7.65,98.29-23.75,143.26-46.55,10.68-5.41,21.19-11.17,31.76-16.79h-22.71c30.88,16.15,61.62,32.09,94.6,43.72,42.79,15.09,87.19,22.72,132.33,26.05,12.22.9,24.44,1.8,36.66,2.7l-22.5-22.5c0,22.94,0,45.88,0,68.81v120.36c0,13.02,0,26.04,0,39.06,0,2.45.07,4.92,0,7.37-.12,4.41-.6,8.85-1.05,13.23-.19,1.82-.39,3.64-.61,5.46-.68,5.62.59-3.89,0,.14s-1.18,7.68-1.88,11.5c-2.59,14.1-6.19,28.02-10.77,41.61-2.32,6.89-5.02,13.6-7.68,20.36.14-.36,2.2-5.09.67-1.63-.27.62-.54,1.24-.82,1.87-.73,1.66-1.48,3.3-2.24,4.94-1.52,3.28-3.1,6.53-4.74,9.76-6.44,12.66-13.76,24.86-21.93,36.48-2.07,2.94-4.2,5.84-6.36,8.71-2.35,3.13,2.89-3.67-.2.24-1.25,1.58-2.52,3.16-3.81,4.71-4.57,5.53-9.34,10.89-14.31,16.07s-10.12,10.15-15.46,14.92c-2.33,2.09-4.71,4.14-7.11,6.14-1.37,1.15-2.76,2.28-4.15,3.4-.7.56-1.4,1.11-2.1,1.67-3.11,2.49,3.06-2.3.83-.65-11.36,8.44-23.14,16.19-35.64,22.85-6.39,3.4-13.01,6.22-19.51,9.37.35-.17,5.13-2.1,1.62-.69-.84.34-1.68.68-2.52,1.02-1.48.59-2.96,1.16-4.45,1.72-3.63,1.37-7.28,2.65-10.97,3.85-13.93,4.53-28.15,7.63-42.62,9.87-2.54.39,2.65-.34,2.47-.33-.94.07-1.88.24-2.82.34-1.89.22-3.78.42-5.67.6-3.82.36-7.64.62-11.47.82-11.73.61-23.06,9.91-22.5,22.5.52,11.67,9.91,23.16,22.5,22.5,64.26-3.35,124.39-28.4,172.9-70.52,46.04-39.97,79.38-94.75,95.9-153.28,6.4-22.67,11.24-47.17,11.49-70.78.1-9.88,0-19.76,0-29.63,0-39.5,0-78.99,0-118.49,0-28.28.45-56.6,0-84.87,0-.47,0-.93,0-1.4,0-12.82-10.34-21.6-22.5-22.5-10.02-.74-20.04-1.48-30.06-2.22-4.83-.36-9.65-.71-14.48-1.07-3.02-.22-6.04-.46-9.06-.74s-5.98-.58-8.96-.91c-1.49-.17-2.98-.34-4.47-.52-2.31-.28-5.1-.56-1.16-.12-24.82-2.72-49.73-9.02-73.51-16.46-12-3.76-23.83-8.01-35.48-12.75-.82-.33-6.47-2.51-1.26-.5-1.11-.43-2.21-.95-3.3-1.42-3.02-1.32-6.03-2.67-9.03-4.05-5.73-2.64-11.4-5.4-17.01-8.28-9.88-5.07-19.69-10.28-29.52-15.42-1.18-.62-2.36-1.27-3.56-1.86-8.41-4.14-16.02-3.45-24.11.72-5.35,2.76-10.64,5.66-15.96,8.49-5.85,3.11-11.7,6.23-17.64,9.18s-11.34,5.49-17.09,8.06c-1.37.61-2.74,1.22-4.11,1.81-.09.04-5.52,2.34-2.27.98s-2.2.9-2.29.93c-1.66.68-3.33,1.35-5,2-23.37,9.2-47.49,16.48-72.05,21.74-7.02,1.5-14.08,2.84-21.16,4.02-3.55.59-7.1,1.11-10.66,1.64-5.82.86,3.42-.39-.26.03-2.08.24-4.17.52-6.25.75-8.03.91-16.08,1.56-24.14,2.12-11.62.81-23.24,1.63-34.86,2.44-12.28.86-22.31,9.61-22.5,22.5-.35,23.71-.71,47.41-1.06,71.12-.59,39.68-1.19,79.35-1.78,119.03-.17,11.13-.33,22.26-.5,33.38-.3,19.96,2.08,40.07,6.06,59.61,11.97,58.72,41.69,114.21,82.05,158.29,40.04,43.72,94.33,77.67,153.66,86.27,8.13,1.18,16.71,2.67,24.98,2.67,11.77,0,23.04-10.35,22.5-22.5-.55-12.19-9.89-22.5-22.5-22.5Z"/>
        </g>
      </g>
      <g>
        <g>
          <circle class="cls-2" cx="349.76" cy="419.88" r="118.39"/>
          <path class="cls-2" d="M445.65,419.88c-.02,2.8-.1,5.6-.29,8.39-.11,1.61-.32,3.21-.44,4.82-.18,2.53.41-2.75.38-2.57-.17.89-.26,1.81-.41,2.71-.95,5.78-2.33,11.49-4.13,17.06-.82,2.54-1.77,5.03-2.72,7.53-1.39,3.68,2.07-4.38-.09.11-.67,1.39-1.31,2.79-2.01,4.17-2.58,5.08-5.54,9.98-8.82,14.63-.72,1.02-1.76,2.06-2.32,3.17-.06.11,3.08-3.75,1.5-1.97-.43.49-.82,1.02-1.24,1.52-1.95,2.35-3.99,4.63-6.11,6.82-1.82,1.88-3.7,3.7-5.64,5.46-.97.88-1.95,1.74-2.95,2.59-.67.56-1.35,1.11-2.02,1.67-2.3,1.95.71-.72,1.46-1.1-4.95,2.49-9.39,6.58-14.31,9.29-2.31,1.28-4.67,2.47-7.06,3.59-.6.28-1.22.52-1.81.82-2.14,1.1,2.45-.99,2.33-.96-1.68.42-3.33,1.33-4.97,1.92-5.49,1.98-11.12,3.55-16.84,4.69-1.34.27-2.68.51-4.02.73-.68.11-1.35.2-2.03.31-2.5.42,2.77-.35,2.58-.35-3.21.02-6.47.62-9.69.73-6.09.21-12.07-.72-18.12-.73-.19,0,5.08.77,2.58.35-.67-.11-1.35-.2-2.03-.31-1.34-.22-2.69-.47-4.02-.73-2.87-.57-5.72-1.26-8.54-2.05s-5.56-1.66-8.29-2.65c-1.25-.45-2.49-.95-3.74-1.42-3.45-1.31,4.39,2.1-.11-.09-5.16-2.51-10.18-5.14-15-8.26-2.3-1.49-4.54-3.67-6.98-4.9-.11-.06,3.75,3.08,1.97,1.5-.49-.43-1.02-.82-1.52-1.24-1.18-.97-2.33-1.97-3.47-2.99-4.22-3.78-8.17-7.87-11.81-12.21-1.33-1.59-2.9-5.22-.15-.05-.59-1.11-1.59-2.14-2.32-3.17-1.64-2.32-3.2-4.71-4.67-7.14s-2.86-4.94-4.16-7.49c-.6-1.18-1.18-2.37-1.74-3.57-.28-.6-.52-1.22-.82-1.81-1.31-2.53,1.68,4.39.71,1.71-2-5.48-3.96-10.88-5.34-16.56-.69-2.86-1.28-5.75-1.76-8.65-.11-.68-.2-1.35-.31-2.03-.42-2.5.35,2.77.35,2.58,0-1.59-.34-3.23-.46-4.82-.46-6.05-.46-12.13,0-18.17.1-1.38.29-2.75.39-4.13.18-2.53-.41,2.75-.38,2.57.13-.67.2-1.36.31-2.03.5-3.13,1.12-6.24,1.87-9.33,1.38-5.68,3.34-11.08,5.34-16.56.83-2.27-1.05,2.42-.98,2.32.36-.46.56-1.28.82-1.81.57-1.19,1.13-2.39,1.72-3.58,1.38-2.75,2.86-5.44,4.45-8.08,1.36-2.25,2.79-4.45,4.29-6.61.83-1.19,2.05-2.43,2.7-3.71.06-.11-3.08,3.75-1.5,1.97.58-.65,1.1-1.36,1.66-2.02,3.64-4.34,7.59-8.43,11.81-12.21.97-.87,1.96-1.73,2.97-2.57.66-.56,4.23-3.37,1.29-1.11s.7-.48,1.4-.98c1.42-1.02,2.87-2,4.34-2.96,4.81-3.12,9.83-5.79,15-8.26.53-.26,1.35-.45,1.81-.82.1-.08-4.58,1.8-2.32.98,1.25-.46,2.48-.98,3.72-1.44,2.93-1.08,5.91-2.04,8.92-2.88,2.6-.73,5.23-1.36,7.88-1.91,1.33-.27,2.67-.53,4.01-.76.67-.11,1.35-.22,2.02-.33,4.07-.67-4.1.42-1.21.18,6.06-.5,12.05-.88,18.13-.63,2.78.11,5.53.43,8.3.63,2.53.18-2.75-.41-2.57-.38.67.13,1.36.2,2.03.31,1.57.25,3.14.53,4.7.84,5.72,1.14,11.35,2.72,16.84,4.69,1.46.53,2.89,1.16,4.35,1.67,2.26.8-2.4-1.04-2.32-.98.46.36,1.28.56,1.81.82,2.58,1.24,5.15,2.48,7.66,3.87,4.92,2.71,9.35,6.8,14.31,9.29.11.06-3.75-3.08-1.97-1.5.65.58,1.36,1.1,2.02,1.66,1,.84,1.99,1.7,2.97,2.57,2.11,1.89,4.16,3.86,6.13,5.89s3.87,4.15,5.69,6.32c.56.66,3.37,4.23,1.11,1.29s.82,1.16,1.36,1.93c3.29,4.66,6.24,9.55,8.82,14.63.6,1.18,1.18,2.37,1.74,3.57.32.69.66,1.86,1.09,2.41.08.1-1.8-4.58-.98-2.32.99,2.72,2.08,5.39,2.97,8.14,1.8,5.57,3.18,11.28,4.13,17.06.11.68.2,1.35.31,2.03.42,2.5-.35-2.77-.35-2.58,0,1.58.34,3.24.46,4.82.23,3.03.33,6.05.35,9.09.07,11.77,10.3,23.05,22.5,22.5s22.57-9.89,22.5-22.5c-.16-28.27-8.56-57-25.07-80.11-17.3-24.22-40.49-42.11-68.39-52.52-53.71-20.05-118.61-2.62-154.95,41.73-19.19,23.42-30.5,50.89-32.97,81.12-2.32,28.34,4.96,57.89,19.62,82.21,14.17,23.5,35.62,43.53,60.7,54.89,28.34,12.84,58.93,16.59,89.51,10.46,54.92-10.99,100.94-58.26,109.39-113.81,1.21-7.97,2.11-15.9,2.16-23.97.07-11.77-10.4-23.04-22.5-22.5s-22.43,9.89-22.5,22.5Z"/>
        </g>
        <path class="cls-1" d="M291.05,434.73c9.79,10.22,19.58,20.43,29.37,30.65,8.51,8.88,23.22,8.32,31.82,0,20.13-19.46,40.26-38.93,60.39-58.39,8.48-8.2,8.85-23.69,0-31.82s-22.78-8.75-31.82,0c-20.13,19.46-40.26,38.93-60.39,58.39h31.82c-9.79-10.22-19.58-20.43-29.37-30.65-8.16-8.51-23.72-8.82-31.82,0s-8.71,22.74,0,31.82h0Z"/>
      </g>
    </g>
  </g>
</svg>