<svg width="280" height="280" viewBox="0 0 280 280" fill="none" xmlns="http://www.w3.org/2000/svg">
<path d="M233.334 140.002H46.667M186.667 46.6689H210C216.189 46.6689 222.124 49.1273 226.499 53.5031C230.875 57.879 233.334 63.8139 233.334 70.0023V93.3356M93.3337 233.336H70.0003C63.8119 233.336 57.877 230.877 53.5012 226.501C49.1253 222.126 46.667 216.191 46.667 210.002V186.669M233.334 186.669V210.002C233.334 216.191 230.875 222.126 226.499 226.501C222.124 230.877 216.189 233.336 210 233.336H186.667M46.667 93.3356V70.0023C46.667 63.8139 49.1253 57.879 53.5012 53.5031C57.877 49.1273 63.8119 46.6689 70.0003 46.6689H93.3337" stroke="#FBB117" stroke-width="24.9656" stroke-linecap="round" stroke-linejoin="round"/>
</svg>
