<?xml version="1.0" encoding="UTF-8"?>
<svg id="Layer_2" xmlns="http://www.w3.org/2000/svg" version="1.1" viewBox="0 0 821.4 743">
  <!-- Generator: Adobe Illustrator 29.1.0, SVG Export Plug-In . SVG Version: 2.1.0 Build 142)  -->
  <defs>
    <style>
      .st0 {
        fill: none;
      }

      .st1 {
        fill: #fff;
      }

      .st2 {
        fill: #f3a405;
      }
    </style>
  </defs>
  <g>
    <path class="st2" d="M38.2,730.5c6-21,12-42,18-62.9-4.8,3.7-9.6,7.3-14.5,11h453.3c20.8,0,41.9,1.1,62.6,0,.3,0,.6,0,.9,0-4.8-3.7-9.6-7.3-14.5-11,5.5,20,11,40,16.5,59.9l10.5-18.5c-2.4.6,5.5-.3,1.8-.3-2,0-4,0-6-.1-3.9-.3,3.4.7-.9-.1-1.7-.3-3.3-.7-5-1-4.8-1.2-9.4-2.7-14-4.5-4-1.5-9-4.1-14-6.4-6.6-2.9-13.5-4.8-20.8-4.6-11.9.3-22.5,5.3-33.2,10.1-8.6,3.9-20.5,8-30.6,8.6-12.1.7-23.9-1.7-34-6.2-12-5.3-22.8-10.3-36.1-10.8-10.5-.4-21.2,2-31,5.4-9.3,3.2-18.3,7.3-27.7,10.3-4.4,1.4-8.9,2.6-13.5,3.4s2.9,0-1.6.2c-1,0-1.9.2-2.9.2-1.5,0-3,0-4.5,0-.4,0-4.7-.5-2.1,0-22.3-3.3-39.4-19-63.9-19.4-16.1-.2-31.1,8.7-46,13.7-4.1,1.4-8.2,2.6-12.4,3.5-2.2.5-4.3.9-6.5,1.2,3.5-.5-.9,0-1.4,0-1.4.1-2.7.2-4.1.2-2.3,0-4.7,0-7-.2-.3,0-4.9-.6-1.7-.1-1.2-.2-2.4-.4-3.6-.7-6.3-1.4-10.5-3-15.2-5.5-12.3-6.5-23.3-12.3-37.4-13.3-10.4-.7-21.1,1.5-30.8,5.1-8.9,3.3-17.4,7.5-26,11.5-.9.4-3.2,1.2.4-.2-1,.4-2,.8-3.1,1.2-1.7.6-3.3,1.1-5.1,1.5-.5.1-1.7.1-2,.4,1.9-1.6,3.2,0,.4-.2-.2,0-1.9-.1-1.9,0,2.7.4,3.3.5,1.7.2-.5-.1-1-.2-1.5-.4-7.5-2.2-16.7,2.7-18.5,10.5s2.4,16.1,10.5,18.5c16.4,4.8,32.2-4.7,46.7-11.3.8-.4,1.7-.8,2.6-1.1,3.5-1.6-3,1.2.6-.3,1.8-.7,3.6-1.4,5.4-2,4.1-1.4,8.2-2.5,12.5-3.2-3.8.7,2,0,3.2-.1s2.5,0,3.7,0c0,0,4.1.3,1.8,0s1.8.3,1.8.3c1.3.3,2.6.6,3.9,1,.9.2,1.8.5,2.7.8.9.3,1.8.6,2.7,1-1.3-.5-1.2-.5.5.3,10.8,5.8,21.2,11.9,33.4,14.4,12,2.4,23.7,2.2,35.7,0,16.9-3,31.8-11.6,48.1-16,1.5-.4,3-.6,4.4-1,3-.8-3.6,0-.6.1.7,0,1.3,0,2,0,1.1,0,2.2,0,3.3.2-3.1-.2,1.5.3,1.8.3,2.9.6,5.7,1.4,8.5,2.4,2.4.8,4.7,1.7,7,2.6,4.5,1.8-1.3-.6,1.3.5,1.2.5,2.3,1,3.5,1.5,5.8,2.5,11.7,5.1,17.7,7.3,22.3,7.9,43.9,3.9,65.4-4.5,9.3-3.6,18.5-7.5,28.3-9.6,1.3-.3,2.6-.5,4-.7-.6,0-2.9.2,0,0,2.3-.1,4.5-.2,6.8-.2.4,0,4.9.4,1.6,0,1.2.2,2.4.4,3.6.7s2.4.6,3.6.9c.6.2,5.3,1.9,3.9,1.3,12.5,5.2,23.9,11,37.5,13,14.5,2.1,29.3,1.4,43.4-2.7,7.2-2.1,14.1-5.1,20.9-8.2,2.8-1.2,5.5-2.5,8.2-3.7-2.4,1,.4-.1,1-.4,1.5-.6,3-1.1,4.5-1.5,1.1-.3,2.1-.5,3.2-.8.6-.2,1.3-.3,1.9-.4-1.8.2-1.9.3,0,.1,1.3,0,2.7,0,4,0-2.7-.2.6.2,1.5.4,0,0,4.5,1.5,2.3.6,1.7.7,3.3,1.6,5,2.4,3.8,1.8,7.8,3.5,11.7,5.1,12.9,5.2,28.9,10.5,43,7.2,7.9-1.8,12.6-10.9,10.5-18.5-5.5-20-11-40-16.5-59.9-1.8-6.3-7.9-11-14.5-11H105.3c-20.8,0-41.8-.7-62.6,0-.3,0-.6,0-.9,0-6.6,0-12.6,4.7-14.5,11-6,21-12,42-18,62.9-2.2,7.5,2.6,16.7,10.5,18.5,8,1.8,16.1-2.4,18.5-10.5h0Z"/>
    <path class="st2" d="M9.2,20.9c6,21,12,41.9,18,62.9,1.8,6.3,7.8,11,14.5,11h453.3c20.8,0,41.8.7,62.6,0,.3,0,.6,0,.9,0,6.6,0,12.7-4.7,14.5-11,5.5-20,11-40,16.5-59.9,2.1-7.6-2.6-16.6-10.5-18.5-11.4-2.7-24.3.6-35.1,4.2-6.1,2.1-12.1,4.6-17.9,7.3-1.5.7-2.9,1.4-4.3,2.1-.4.2-3.8,1.6-1.8.9-1.4.5-2.8.8-4.3,1.2-2.9.9,1.7.3-1.5.2-1.3,0-2.6,0-4-.1,2.8,0,.9.2.1,0-2.4-.6-4.7-1.2-7.1-2-1.1-.4-2.2-.8-3.2-1.2,2.9,1.1-1.6-.7-1.7-.8-2.8-1.2-5.6-2.6-8.5-3.8-12.9-5.6-25.5-9.6-39.6-10.7-13.7-1-28.1,1-40.9,5.9-6.3,2.4-12.2,5.5-18.4,8.1,2.2-.9-2.6.9-2.4.8-1.2.4-2.4.7-3.6,1s-2.4.5-3.6.8c-1.8.3-1.9.3-.2,0-.7,0-1.4.1-2.1.1-2.5.1-5,0-7.5-.1-.6,0-3-.4,0,0-1.3-.2-2.6-.4-4-.7-4.8-1-9.6-2.5-14.2-4.2-19.8-7.1-39.2-16.7-60.8-14.1-13,1.5-24.5,6.4-36.3,11.5-.9.4-1.9.8-2.8,1.2-4.5,2,2.6-1-2,.8-2.3.9-4.6,1.8-7,2.6-2.4.8-4.7,1.5-7.1,2-1.4.3-2.9.6-4.3.8,2.9-.4-1.3,0-1.9,0-.8,0-1.6-.1-2.4,0-3,.2,3.6.9.6.1-1.5-.4-3-.6-4.4-1-3.6-1-7.1-2.3-10.6-3.6-8.2-3.2-16.4-6.7-24.8-9.3-22.4-6.9-45.4-6.6-66.9,3.3-3.2,1.5-6.2,3.2-9.3,4.9-.9.6-1.8,1.1-2.8,1.6s-5.6,2.8-3.2,1.8c-2.5,1.1-5.2,1.9-7.9,2.5-1.1.2-2.2.4-3.2.6-1.1.2-.8.1.8-.1-.8,0-1.7.1-2.5.2-2.5.1-4.9,0-7.3-.2-4-.2,3.1.7-.8-.1-1.2-.3-2.3-.5-3.5-.7-4.5-1.1-8.9-2.6-13.2-4.3-3.6-1.4,2.9,1.4-.6-.3-1-.5-2-.9-3.1-1.4-2-.9-3.9-1.8-5.9-2.8-4.5-2.1-9.1-4.2-13.7-6C37.8,1.4,28.5-.2,19.7,2.4c-7.8,2.3-12.6,10.5-10.5,18.5,2.2,7.9,10.6,12.8,18.5,10.5.2,0,2.2-.4,2.2-.5-.6,1.6-4,0-1.3.3.6,0,1.4,0,2,0,2.9-.2-3.6-1-.8-.1,3.1,1,6.3,1.9,9.4,3-4.2-1.4.8.4,1.9.9,1.6.7,3.2,1.5,4.8,2.2,4.5,2.1,9,4.2,13.6,6.1,18.3,7.6,38.3,10.2,57,2.5,11.7-4.8,19.4-11.2,31-13.8,1.4-.3,2.9-.6,4.4-.8-2.7.4.3,0,1,0,2.6-.2,5.1-.3,7.7-.2,2.3,0,4.5.3,6.8.5-2.9-.3-.6,0,0,0,1.7.3,3.5.6,5.2,1,16.1,3.6,30.5,12.2,46.5,15.8,10.2,2.3,20.4,1.4,30.4-1.6,5.5-1.7,10.9-3.9,16.2-6.2,2.3-1,4.6-2,7-3,0,0,4.6-2,2-.9,1.4-.6,2.8-1.2,4.2-1.7,5-1.9,10-3.5,15.3-4.4,2.7-.5-3.4,0,1.3-.1,1.6,0,3.1-.2,4.7-.1,1,0,1.9,0,2.9.1.9,0,1.9.1,2.8.2-1.7-.2-1.6-.2.2,0,9.6,1.9,18.6,5.1,27.7,8.7,20.2,7.9,41.1,14.3,62.7,7.3,12.9-4.2,21.5-10.2,34.6-12.9,10.9-2.2,23.2-1.2,34.5,2.4s21.5,10.2,34.2,13.6c7,1.9,13.9,2.2,21.1,1s13.7-4.6,20.3-7.7c4.2-1.9,9.1-3.9,14.6-5.5,2.2-.7,4.5-1.3,6.8-1.8.8-.2,1.7-.4,2.5-.5.5,0,4.5-.8,1.5-.3-2.8.4,1.8-.1,2.6-.2,1,0,2,0,3.1,0,.9,0,3.8.4,0,0-3.3-.4-2-.3-1.2-.1l-10.5-18.5c-5.5,20-11,40-16.5,59.9l14.5-11H105.2c-20.8,0-41.9-1.1-62.6,0-.3,0-.6,0-.9,0l14.5,11c-6-21-12-42-18-62.9C35.9,5.1,27.6.3,19.7,2.4c-7.9,2.2-12.7,10.6-10.5,18.5Z"/>
    <path class="st2" d="M558.6,648.5H105.3c-20.8,0-41.9-1.1-62.6,0-.3,0-.6,0-.9,0l15,15c-3-27.3-6.1-54.7-9.1-82-3.8-34-7.6-68-11.4-102.1-7.9-70.7-8.4-142-.7-212.8,3.1-28.9,6.6-57.8,9.9-86.6,3.7-32.6,8.2-65.2,11.1-97.8,0-.6.1-1.2.2-1.8l-15,15h453.3c20.8,0,41.9,1.1,62.6,0,.3,0,.6,0,.9,0l-15-15c3.5,27.1,7,54.3,10.5,81.4,3.7,28.7,7.7,57.4,11.1,86.2,9.5,79.3,9.6,159.6.3,238.9-3.2,27.6-6.8,55.2-10.3,82.7-3.8,30.6-8.5,61.3-11.5,92,0,.6-.1,1.1-.2,1.7-1,7.8,7.6,15.3,15,15,9-.4,14-6.6,15-15,3.3-26.3,6.5-52.6,9.8-78.9,3.7-29.6,7.4-59.2,11.1-88.9,9-72.4,10.4-145.7,3.8-218.4-3-33.7-7.9-67.2-12.3-100.8-4.1-31.5-8.1-62.9-12.2-94.4,0-.6-.2-1.2-.2-1.8-1-8.1-6-15-15-15H105.3c-20.8,0-41.8-.6-62.6,0h-.9c-8.8,0-14.1,6.9-15,15-3.2,27.9-6.4,55.8-9.5,83.7-3.7,32.1-7.3,64.2-11,96.3-8.1,71.6-8.3,144-.4,215.7,3.3,29.8,6.7,59.7,10,89.5,3.6,32,7.1,64.1,10.7,96.1,0,.6.1,1.2.2,1.7.9,8.1,6.1,15,15,15h453.3c20.9,0,41.8.6,62.6,0h.9c7.8,0,15.4-6.9,15-15s-6.6-15-15-15h0Z"/>
    <g>
      <path class="st2" d="M358.8,449.1c-3.5.8-7.1,1.4-10.7,2-1.3.2-4.4.3.8,0-.9,0-1.9.2-2.8.3-2,.2-4.1.4-6.1.6-4.8.4-9.7.6-14.5.6s-10.8-.3-16.2-.9c-.7,0-1.3-.2-2-.2.4,0,3.6.5,1,.1-1.4-.2-2.7-.4-4.1-.7-2.9-.5-5.8-1.2-8.6-2-2.5-.7-5-1.5-7.4-2.4-1.3-.5-4.3-1.9-1.2-.5-1.6-.8-3.1-1.5-4.7-2.3-2.3-1.2-4.6-2.6-6.7-4.1-.6-.4-1.1-.8-1.7-1.2-1.7-1.1,2,1.8.5.4-1.1-1.1-2.4-2.1-3.6-3.2-1-1-2-2-3-3.1-.7-.8-3.1-4.2-1.1-1.2-1.8-2.7-3.5-5.4-5.1-8.2-3.1-5.6-7.1-11.1-11.9-15.4-9.6-8.6-21.4-13.4-34.3-14-24.3-1.3-48.5,13.2-63.4,31.6-19.3,24-25.1,53.6-17.8,83.5,6.6,26.6,23.1,49.7,46.7,63.9,12.3,7.4,26.7,12.6,41,14.1,20.3,2.2,41.3-6.9,57.4-18.5,28-20.3,46.6-49.9,70.2-74.7,3.3-3.4,6.6-6.8,10.1-10,1.1-1,2.2-2,3.4-3,.5-.4,1-.9,1.6-1.3,2.5-2.1-2.7,1.9-1.1.9,1.4-.9,2.8-1.8,4.1-2.7,2.2-1.5-4.6,1.5-1.3.7-3.9.9-6.9.5-10.9-1.5,7.3,3.6,16.2,2,20.5-5.4,3.9-6.6,1.9-17-5.4-20.5-10.4-5.1-19.4,1-27.4,7.5-18.6,15.2-33.9,35.2-48.9,53.8-6,7.4-12.3,14.6-19.2,21.1-2.8,2.6-5.6,5-8.5,7.5-2.2,1.9-.8.6-.3.2-.7.5-1.4,1.1-2.2,1.6-1.6,1.1-3.1,2.2-4.8,3.3-2.5,1.6-5,3.1-7.6,4.5-1.3.7-2.6,1.3-3.9,2-.6.3-1.2.6-1.9.9-2.5,1.2,2.1-.7.4-.2-4.3,1.3-8.3,2.9-12.8,3.8-.9.2-2,.2-2.9.5,4.1-1.4,2.4-.3.6-.2-1.6.1-3.2.2-4.8.2-1.4,0-2.7-.2-4-.2-2.6-.1,2.6.4,2.1.3s-1.1-.2-1.7-.3c-5-1.1-10-2.4-14.8-4.1-.8-.3-1.5-.6-2.3-.9-2.8-1,1.3.6.8.4-1.9-1-3.8-1.7-5.7-2.7-4.1-2.1-7.9-4.5-11.6-7.2-.5-.4-1-.8-1.5-1.1,0,0,2.3,2,1.2.9-.9-.9-2-1.7-3-2.5-2.2-1.9-4.2-3.9-6.2-6.1-.8-.9-1.7-1.9-2.5-2.8-.5-.6-.9-1.1-1.4-1.7-1.3-1.6,1.4,2.2.3.4-1.5-2.7-3.5-5.1-5.1-7.8-.8-1.4-1.6-2.8-2.3-4.3-.4-.8-.7-1.5-1.1-2.2-.2-.4-1.3-2.8-.5-1.1.5,1.2-.9-2.3-1.2-3.1-.7-1.9-1.3-3.9-1.9-5.9-1-3.5-1.9-7.1-2.5-10.7-.2-.9-.9-6.8-.5-3.1-.2-1.8-.3-3.6-.4-5.5-.1-3,0-6,.2-8.9,0-.8.2-1.5.2-2.3-.3,3.4-.2,1.3,0,.5.3-1.7.6-3.4,1-5.1.7-2.8,1.5-5.5,2.4-8.1.3-.7.5-1.4.8-2.1-.2.4-1.4,3-.2.5.7-1.5,1.4-3,2.2-4.5,1.3-2.4,2.7-4.8,4.2-7,.8-1.2,1.7-2.4,2.5-3.5-1.9,2.7.2-.2,1-1.1,1.9-2.1,3.8-4.2,5.9-6.1,1-1,2.1-1.9,3.1-2.8.5-.4,1.1-.9,1.6-1.3-.7.6-2.1,1.5-.6.5,4.4-3.1,8.9-5.7,13.8-8-3.8,1.8-.2.1.9-.2,1.2-.4,2.4-.8,3.6-1.1,1.1-.3,2.1-.5,3.2-.8.6-.1,1.2-.2,1.8-.4,3.2-.7-.8,0-.8,0,0-.5,6.5-.3,7.1-.3.7,0,4.2.5,1.5,0s1.6.3,2.3.5c1.1.3,2.2.6,3.3,1,.3.1,1.5.4,1.6.6s-3-1.5-1.6-.6c1.3.8,6,2.3,6.5,3.9,0,0-2.8-2.6-.9-.6s.9.8,1.4,1.2c.8.8,1.6,1.6,2.3,2.4.4.5.8,1,1.3,1.5,1.4,1.3-1.5-2.4-.5-.6.8,1.4,1.8,2.6,2.6,4,3.5,6,7.1,11.8,11.8,17,28.4,31.7,78.8,32.5,117.6,24.8.9-.2,1.8-.4,2.7-.6,7.9-1.9,12.6-10.8,10.5-18.5-2.2-8.1-10.5-12.4-18.5-10.5h0Z"/>
      <path class="st2" d="M282.5,556.3c8.1,8.8,19,16,29.8,20.9,25.3,11.4,52.1,11.4,77.2-.5,16.8-8,31.3-20.9,43.3-35,14.1-16.5,30.5-36.8,29.8-59.8-.6-17.7-11.3-33.4-27.1-41.3-17.1-8.5-36.2-8.6-54.1-2.3-23.1,8.1-42.1,24.6-58.8,42.1-16.3,16.9-32.5,36.3-42.5,57.7-3.4,7.3-2.1,16.2,5.4,20.5,6.5,3.8,17.1,2,20.5-5.4,7.6-16.3,18.1-29.6,29.5-42.5,6.8-7.7,14-15,21.6-22,3.1-2.9,6.4-5.7,9.7-8.3,2.4-1.9,1.2-1,.7-.5.8-.6,1.7-1.2,2.5-1.8,2.1-1.5,4.3-2.9,6.5-4.3,8.5-5.2,13.5-7.4,23.5-9.4,1-.2,2.1-.4,3.1-.5-.8.1-2.2.2.8,0,1.3,0,2.7-.1,4-.1s2.7.2,4.1.2c-4.4-.3.9.2,2.1.5,1.5.4,3,.9,4.5,1.4,3.5,1.1-2-1.2,1.3.5,1.4.7,2.8,1.4,4.1,2.3.6.4,1.1.8,1.7,1.1,2.5,1.6-2-2,.2.2,1,1,2,1.9,2.9,2.9.5.5.9,1,1.3,1.6-2.3-2.6-.9-1.3-.5-.5.7,1.2,1.4,2.4,2,3.6-1.9-3.4.3,1,.6,2.4.2.7.3,1.4.4,2.1-.7-3.6-.1-1.1-.2,0,0,.6-.1,5.2,0,3.4.2-2.4-.4,1.7-.4,1.8-.2.9-.4,1.7-.7,2.6s-.6,1.8-.9,2.7c-.9,2.8.8-1.1-.8,1.9-4.5,8.6-10.2,16.6-16.1,23.6s-12.1,13.7-19,19.7c-.7.6-5,4.1-2.8,2.4-1.4,1-2.8,2.1-4.2,3-3,2.1-6.1,4-9.3,5.7-1.3.7-2.7,1.4-4.1,2.1-.2,0-3.5,1.6-1.2.6,1.9-.8-.2,0-.7.3-2.9,1.1-5.8,2.1-8.8,2.8-1.4.4-2.8.7-4.3,1s-4.6,1.6-.7.2c-2.3.8-5.7.5-8.1.5s-4.9-.2-7.3-.4c-3.4-.3,3.6.7-.5,0-1.2-.2-2.4-.4-3.6-.7-2.2-.5-4.3-1-6.4-1.7-1.9-.6-4.5-2.2-6.3-2.3,2.2.1,3,1.3,1.6.7-.6-.3-1.3-.6-1.9-.9-1-.5-2.1-1-3.1-1.5-1.9-1-3.8-2.1-5.7-3.2-1.6-1-3.2-2-4.7-3.1-.7-.5-1.5-1.1-2.2-1.6-2.9-2,2.4,2,.9.7-2.6-2.2-5.4-4.4-7.7-6.9-5.5-6-15.6-5.6-21.2,0s-5.5,15.2,0,21.2h0Z"/>
    </g>
    <g>
      <path class="st2" d="M361,290c-3.2,7.2-7.6,13.9-12.3,20.2,2.7-3.7-.7.8-1.3,1.5-1.1,1.3-2.2,2.5-3.4,3.7s-2.4,2.4-3.7,3.6c-.8.8-6,4.7-2.6,2.3-2.9,2-5.8,3.8-9,5.4-3,1.5,2.2-.4.2,0-.8.1-1.7.6-2.5.8-.9.2-1.7.5-2.6.7-1.1.2-4.9.4-.8.2-1.9,0-3.7.2-5.5.1-.8,0-1.5-.1-2.3-.2,6,.4-5.8-.8-3.4-.5-4.5-.5-9-.2-13.5.7-7.5,1.6-14.8,5.8-19.9,11.4-11.7,12.8-14.7,30.4-12.2,47.1,6.2,41.6,54.3,66.1,92.7,51.1,6.1-2.4,11.9-5.2,17.1-9.2-.6.4,5.4-4.2,3.5-2.8-1.9,1.5,2-1.4,3.1-2.4,1-.9,2-1.8,2.9-2.8,10-11.3,14-26.1,14.4-41,.4-13.5-2.6-26.8-5.7-39.9-2.3-9.7-5.7-20.4-6.1-30.5.2,5.1,0-.1-.1-1.4-.1-1.1-.2-2.2-.2-3.3,0-1.5.1-3.1,0-4.6s-1,5-.3,2.4c.5-1.6,1.1-1.4-1.2,2.7-.5.9-3.3,4-5,4.9,7.2-3.7,9.3-13.8,5.4-20.5-4.3-7.3-13.3-9.1-20.5-5.4-6.8,3.5-8.4,11.9-8.4,18.8.1,14.7,4,29.8,7.3,44,2.8,11.7,4.9,19,4.9,30.2,0,1.9,0,3.8-.2,5.7,0,1-.2,1.9-.3,2.9.2-3.4.2-1.6,0-.7-.6,3.3-1.5,6.4-2.5,9.6s1.6-2.9-.2.4c-.5,1-1.1,2-1.7,3-.3.5-1.7,2-1.7,2.5.1-2.4,2.5-2.9,1.4-1.8-.4.4-.7.9-1.1,1.3-.8.8-1.8,1.5-2.5,2.4-1.2,1.5,4.1-3.1,2-1.5-1.5,1.1-3,2.2-4.4,3.4-2,1.8,3.5-2.5.8-.6-2.1,1.4-4.1,2.8-6.3,4-1.4.8-2.8,1.4-4.3,2.1,3.5-1.6-1.1.3-2.5.8-1.9.6-3.8,1.1-5.8,1.5,0,0-4.1.6-1.8.3s-2,.1-1.9.1c-2.1.1-4.2,0-6.3,0-.7,0-3.8-.5-1.2,0-1.5-.2-3.1-.6-4.6-.9-5.5-1.3-9.1-2.9-13.9-5.7-.9-.5-4.6-3.1-3.3-2.1,1.9,1.4-1-.9-1.1-1-.8-.7-1.6-1.5-2.4-2.3s-4.1-5.2-1.9-2c-.9-1.3-1.8-2.6-2.6-4s-1.5-2.8-2.2-4.2c-1.6-3.2,1,3.1-.1-.3-.3-1-.7-2-1-2.9-.5-1.6-.9-3.3-1.2-5,0-.2-.4-2-.4-2,.1,0,.3,3.7.1.5,0-1.5-.2-3-.2-4.5s-.2-7.7,0-2.8c0-2.7,1.4-5.5,2-8.1.7-3-1.7,2.9-.1.3.3-.5.5-1.1.8-1.6.3-.6.7-1.3,1.1-1.9.2-.4.5-.7.7-1.1.9-1.3.6-.9-.8,1,0-.8,2.1-2.2,2.6-2.7,2.1-2.2-2.6,1.4.6-.4.6-.3,1.3-.6,1.8-1,1.4-1.1-3.6.9-.9.4.5-.1,1.1-.4,1.6-.5.6-.1,1.1-.3,1.7-.4,1.2-.2,1.2-.2-.2,0h-1.1c.6,0,1.2,0,1.9,0,.6,0,1.3,0,1.9,0,.9,0,4.4.4,0-.1,1.7.2,3.4.5,5.1.7,5,.6,9.6.2,14.6-.6,17.1-2.8,31.8-14.5,42.3-27.8,6.1-7.6,11.8-15.8,15.8-24.8,3.3-7.4,2.1-16.1-5.4-20.5-6.4-3.7-17.2-2-20.5,5.4h0Z"/>
      <path class="st2" d="M388.7,380c25.7-2.4,48.6-19.1,56.8-43.9,3.4-10.2,4-21.6,2.8-32.2-1.6-14.5-4.6-31.5-13-43.8-8.6-12.5-21.9-19-37-16.6-11.5,1.9-21.5,9.2-28,18.6-11.2,16.1-11.8,36.8-9.5,55.5s6.3,37.9,15,54.8c3.7,7.2,13.8,9.3,20.5,5.4,7.3-4.3,9.1-13.3,5.4-20.5-.6-1.1-1.1-2.2-1.6-3.2-1.2-2.4.4,1.3-.6-1.4-1.1-3.1-2.2-6.3-3.2-9.5-2-6.9-3.6-13.8-4.9-20.9-.3-1.7-.6-3.4-.8-5.2.2,1.4-.2-2.3-.3-2.9-.4-3.7-.7-7.4-.7-11,0-3.3,0-6.6.4-9.9.2-1.8,0-.4,0,0,.1-.8.3-1.6.5-2.4.4-1.9,1-3.7,1.5-5.5.6-2,0-.6,1-2.5.8-1.5,1.6-3,2.5-4.5,1.6-2.7-.4,0-.3.2-.1-.2,1.9-2,2.1-2.3.4-.4,2.8-2.4.9-.9s.6-.3,1.1-.6c.7-.5,1.7-.8,2.4-1.3,1.4-1.1-1.6.9-1.5.6.1-.2,1.5-.5,1.7-.6.9-.2,1.8-.4,2.6-.7,2.4-.7-2.9-.1-.4,0,.2,0,2.7,0,2.7,0,0,.4-3.2-.9-1.8-.2.5.2,1.2.3,1.8.5.2,0,1.2.3,1.3.4.2.4-2.6-1.9-1.5-.5.3.3,3.2,2.1,1.4.7-1.7-1.3.8.9,1.2,1.3s.8.8,1.1,1.3c-.9-1.1-1-1.5-.2-.1.6,1.2,1.3,2.3,1.9,3.5,1.1,2.2-.1-.7.7,1.9,1,3.2,2,6.4,2.9,9.7.7,2.7,1.4,5.5,1.9,8.3.2,1.3.4,2.6.7,3.9.4,1.7,0-.6,0-.8.1.8.2,1.6.3,2.4.5,4.8.5,9.5.2,14.3,0,.5-.1,1-.1,1.5,0,1.8.2-1.7.2-1.6.2.6-.4,2.1-.5,2.8-.4,1.9-.9,3.8-1.5,5.6-.3.8-.6,1.6-.8,2.4-.9,2.7.7-1.3.3-.6-.9,1.4-1.5,3-2.4,4.5-.5.8-2.5,2.9-2.5,3.7,0-.9,2.4-2.8.6-.8-.5.6-1.1,1.2-1.6,1.8-.9,1-1.9,1.9-2.9,2.8-.5.4-1.1.8-1.5,1.3-.3.3,3.1-2.2.7-.6-2.1,1.4-4.2,2.8-6.5,3.9-.9.5-4.9,2.2-2,1s-.9.3-1.8.6c-1.9.7-3.8,1.2-5.8,1.7-1.4.3-2.7.5-4.1.8-3,.6,4.7-.5,2.2-.3-7.8.7-15.4,6.4-15,15,.3,7.5,6.6,15.8,15,15h0Z"/>
    </g>
    <g>
      <path class="st2" d="M247,228.3c5.9,13.2,16.9,26.8,30.1,33.1,6,2.9,12.3,4.7,19,4.6,1.6,0,3.2-.2,4.8-.5.9-.1,2.2-.4,3.2-.4-5.1.2-1.3.5-1,.2s1.1.1,1.4,0c1.6-.4-1.8.2-1.7-.3,0-.1,4.5,1.4,1.5.2-2.4-.9.3.4.8.6.6.2-2.4-2.2-.5-.2,2.2,2.2-1.1-2.3,0-.1.4.9.9,1.9,1.5,2.6.9,1.3-.9-1.5-.7-1.5,0,0,.4,1.2.4,1.3.2.8.3,1.9.7,2.7.7,1.5-.2-1.8-.2-1.7.1.4.1,1,.1,1.4,0,1.3,0,2.6,0,3.9s0,1.3-.1,1.5c-.1.1.7-3.2.2-1.5-.3,1-.4,2-.7,3s-.7,2-.9,2.9c-.4,1.5.5-1.1.5-1.2-.4.6-.6,1.3-.9,1.9-.6,1.1-1.4,2.1-2,3.2-.7,1.4.6-.8.7-.9-.4.4-.7.8-1.1,1.2-.8.8-1.7,1.5-2.4,2.3-1,1.2.6-.5.8-.6-.7.4-1.3.9-1.9,1.3-3,1.9-4.7,2.5-8.1,3.4-.8.2-1.5.4-2.3.5.3,0,2-.2.3,0-1.6.1-3.2.1-4.9,0-2.9,0,1.6.6-1.1-.1-1.3-.4-2.7-.6-4-1-.6-.2-3.7-1.5-1.7-.6s-1.1-.6-1.6-.9c-1.3-.7-2.4-1.6-3.7-2.4-1.7-1,3.7,2.9,1,.8-1.2-1-2.4-1.9-3.6-2.8-.2-.2,3.3,3,2.4,1.9-.4-.6-1.1-1.2-1.7-1.7-1.7-1.6,1,.7,1,1.4,0-.5-1.1-1.6-1.4-2.1-.1-.2-.9-2-1-2,.6,0,1.2,3.7.3.5-.2-.9-.5-1.8-.8-2.7-.2-.7-.6-4.2-.5-2.2.2,2.2,0-2.2,0-2.8,0-1.4,0-2.7,0-4.1,0-1.5.2-3,.4-4.5-.2,1.7.6-2.8.8-3.6,2.6-12.2,6.4-24.5,6.8-37,.2-6.7-1.7-14.2-8-17.6-7.1-3.9-16.4-1.8-20.5,5.4s-1.8,16.6,5.4,20.5c-2.1-1.1-4.1-3.4-5.2-5.1-1.1-1.9-2.2-4.1-1.7-6.1-.5,2-.1,4.9-.3,7-.2,2.6.6-3.4,0-.5-.2,1.2-.4,2.5-.6,3.7-.6,3.4-1.3,6.8-2.1,10.2-1.9,8.4-4,16.7-4.8,25.4-.9,10.9.7,23.3,7,32.5,2.2,3.2,4.4,5.8,7.4,8.1,4.6,3.6-1.3-1.3.3.3,1.2,1.1,2.7,2.1,4,3.1s2.9,2,4.5,2.8c27.3,14.4,62.7,2.2,73.1-27.3,7.9-22.5-4.4-53.5-31.5-52.4-2.2,0-4.3.7-6.5.8,3.9-.2-.7-.2-1.7-.2-1.2,0-2-.8.8.1-.7-.2-1.4-.3-2.1-.5-.5-.1-1-.4-1.5-.5-1.6-.2,2.5,1.4.2.1-1.2-.7-2.5-1.3-3.6-2.1-.4-.3-.9-.7-1.3-.9-1.6-.8,1.8,1.7.6.4-1.9-1.9-4-3.7-5.8-5.7-.5-.5-3-3.8-1.6-1.9s-.6-.9-1-1.4c-1.2-1.7-2.3-3.5-3.4-5.3-1-1.7-2-3.5-2.8-5.3-3.3-7.4-14.1-9.2-20.5-5.4-7.6,4.4-8.7,13.1-5.4,20.5h0Z"/>
      <path class="st2" d="M250.2,250.1c-1.9-.2,4,.9,3.1.4-.6-.3-1.5-.3-2.1-.4-.9-.2-1.9-.4-2.8-.7s-5-1.9-2.1-.6.1,0-.5-.3-1.2-.6-1.8-.9c-.7-.4-1.4-.9-2.1-1.3-.4-.2-.7-.5-1-.7-1.9-1.1,2.3,2.2,1.3,1s-2.5-2.4-3.6-3.6c-1.6-1.5,2,3.2.2.1-.5-.9-1-1.8-1.5-2.6-1.9-3.2.5,2.2-.1-.1-.3-1.1-.7-2.2-1-3.3-.2-.7-1.3-4-.4-1.7.8,2,0,.4,0-.5s-.1-1.7-.1-2.6c0-1.5,0-3,0-4.5,0-.6.5-4.7.2-2.9s.5-2.6.7-3.2c.5-2.1,1-4.3,1.6-6.4.3-1,.6-2,.9-3,.1-.4,1.4-3.3.6-1.7s.8-.9.8-1.2c0-.9.2-.2-.6.6.4-.4,1.1-1,1.5-1.6-1.5,2-1.8,1.2-.6.6-.4.2-3.4,1-1,.4,2.7-.6-2.8.1-.9,0,3.1-.1-1.9-1.1,0-.1,3.5,1.8-1.5-1.4.6,0,.4.3,1.1.7,1.6.9,2,1-1-.7-.9-.7.2,0,.8.8,1,.9,1.9,1.9.3-.4-.3-.7.5.2,1.1,1.8,1.4,2.2,2.3,3.6,0-.4.9,1.8.4,1,.6,2.1.9,3.1.1.6.5,3.6.4,1.7.5,5,.1,10.3-.6,15.2.1-.7.3-1.9-.2,1.3-.2,1.2-.4,2.4-.6,3.5-.5,2.6-1.1,5.2-1.8,7.7-.6,2.4-1.3,4.8-2.1,7.1-.3.9-.7,1.9-1,2.8.9-2.3-.2.4-.6,1.2-3.7,7.2-1.9,16.3,5.4,20.5,6.7,3.9,16.8,1.9,20.5-5.4,5.2-10.3,8.2-21.6,9.8-33,1.9-12.8,2.6-25.7-2.6-37.9-8.1-19.2-31.9-30.1-49.4-15.2-8,6.8-11.5,17.8-13.5,27.8-1.9,9.3-2.5,18.5-.8,27.8,2.3,12.8,10.4,24,21.5,30.7,6.7,4.1,14.4,6.4,22.1,7.1s15.3-7.4,15-15c-.4-8.8-6.6-14.2-15-15h0Z"/>
    </g>
  </g>
  <circle class="st1" cx="614.1" cy="393.5" r="149.4"/>
  <path class="st2" d="M748.6,393.5c0,3.7-.1,7.4-.4,11.1-.1,1.8-.3,3.7-.5,5.5,0,.9-.2,1.8-.3,2.7.5-3.4-.2,1.1-.3,1.4-1.2,7.3-3,14.5-5.3,21.6-1,3.2-2.2,6.3-3.4,9.4-1,2.7-.3.6,0,0-.3.8-.7,1.6-1.1,2.4-.9,2-1.9,4-2.9,5.9-3.3,6.4-7,12.6-11.2,18.5-.5.7-1,1.4-1.5,2.1-.2.3-1.9,2.5-.8,1.1s-.6.7-.8,1c-.5.7-1.1,1.4-1.7,2-2.4,2.8-4.8,5.6-7.4,8.2-2.4,2.5-4.9,4.9-7.5,7.2-1.3,1.2-2.6,2.3-3.9,3.4-.7.6-1.3,1.1-2,1.7-.2.2-3.7,2.8-1.1.9-5.6,4.2-11.4,8-17.5,11.4-3.1,1.7-6.2,3.3-9.4,4.8-.6.3-5.3,2.3-2.5,1.1-2,.8-4.1,1.6-6.2,2.4-6.9,2.5-14.1,4.5-21.3,5.9-1.8.4-3.6.7-5.3,1-.4,0-3.3.5-1.4.2s-1,.1-1.4.2c-3.9.5-7.8.8-11.7.9-7.7.3-15.3,0-22.9-.9-.4,0-3.3-.5-1.4-.2s-1-.2-1.4-.2c-1.8-.3-3.6-.6-5.3-1-3.7-.8-7.5-1.6-11.1-2.7-3.4-1-6.8-2-10.2-3.3-1.7-.6-3.3-1.2-5-1.9-2.7-1-.6-.3,0,0-1.2-.5-2.4-1.1-3.6-1.6-6.5-3-12.9-6.6-18.9-10.5-2.7-1.8-5.4-3.7-8-5.6,2.3,1.7-1.4-1.1-2.1-1.7-1.7-1.4-3.3-2.8-4.9-4.3-5.3-4.8-10.3-10-14.9-15.5-.6-.7-1.1-1.3-1.6-2-.3-.3-1.9-2.5-.8-1s-.5-.8-.8-1.1c-.5-.7-1-1.4-1.5-2.1-2.1-3-4.2-6.1-6.1-9.3-1.8-3-3.5-6.1-5.1-9.2-.8-1.6-1.6-3.1-2.3-4.7-.4-.8-.7-1.6-1.1-2.4-1.8-3.9,1,2.8-.5-1.3-2.6-6.7-4.8-13.4-6.5-20.3-.9-3.5-1.6-7-2.2-10.6-.1-.9-.3-1.8-.4-2.7.5,2.9,0,.5,0,0-.3-2.3-.5-4.6-.7-6.9-.6-7.6-.5-15.4,0-23,.1-1.8.3-3.7.5-5.5,0-.4.5-3.3.2-1.4s.2-1,.2-1.4c.6-3.8,1.4-7.5,2.3-11.3,1.7-7.1,4-14.1,6.8-20.9.9-2.2-.9,2,0,0,.4-.8.7-1.6,1.1-2.4.7-1.6,1.5-3.2,2.3-4.8,1.7-3.3,3.5-6.6,5.4-9.8,1.8-3,3.7-5.9,5.7-8.8,1-1.4,2-2.8,3.1-4.2-1.6,2.2-.3.4,0,0,.8-1,1.6-2,2.5-3,4.6-5.5,9.6-10.6,15-15.4,1.3-1.2,2.6-2.3,4-3.4.7-.6,1.3-1.1,2-1.6.3-.3,2.5-1.9,1-.8-1.1.8,2.1-1.5,2.7-1.9,1.8-1.3,3.6-2.5,5.4-3.7,6.1-3.9,12.4-7.4,19-10.5.8-.4,1.6-.7,2.4-1.1,2.1-1-2.1.8,0,0,1.6-.7,3.3-1.3,5-1.9,3.5-1.3,7.2-2.5,10.8-3.5s7-1.8,10.5-2.5c1.8-.4,3.5-.7,5.3-1,.9-.1,1.8-.3,2.7-.4-3.3.5,1.1-.1,1.5-.2,7.4-.8,14.8-1.1,22.2-.8,3.7.1,7.4.4,11,.8.9.1,1.8.2,2.7.3-2.9-.4-.5,0,0,0,2.2.4,4.5.8,6.7,1.2,7.2,1.5,14.3,3.5,21.3,6,1.7.6,3.3,1.3,5,1.9,2.2.9-2-.9,0,0,.8.4,1.6.7,2.4,1.1,3.4,1.6,6.7,3.2,10,5.1,3.1,1.7,6.1,3.5,9,5.4,1.5,1,2.9,1.9,4.3,2.9.7.5,1.4,1,2.1,1.5.3.2,3.1,2.3,1.6,1.2s.7.6,1,.8c.7.5,1.3,1.1,2,1.6,1.3,1.1,2.7,2.2,4,3.4,2.8,2.5,5.4,5,8,7.7,2.4,2.5,4.8,5.1,7,7.8,1.1,1.3,2.2,2.7,3.3,4-1.7-2.2-.3-.4,0,0,.8,1.1,1.5,2.1,2.3,3.2,4.1,5.9,7.9,12.1,11.1,18.5.8,1.6,1.5,3.1,2.3,4.8.4.8.7,1.6,1.1,2.4,1,2.1-.8-2.1,0,0,1.4,3.5,2.7,7,3.9,10.6,2.3,7.1,4,14.3,5.2,21.6,0,.4.5,3.3.2,1.4s.1,1,.2,1.4c.2,1.8.4,3.6.5,5.5.3,3.9.5,7.9.5,11.8,0,7.8,6.9,15.4,15,15s15-6.6,15-15c-.3-68.9-44-130.7-108.4-154.6-63.5-23.6-138.8-3.3-181.9,48.9-22,26.6-35.1,58.7-38,93.1-2.8,33.8,5.6,68.6,23.2,97.6s42.2,50.9,72,64.3c32.2,14.5,67.6,18.6,102.2,11.7,65.3-13,118.7-68.3,128.7-134.2,1.4-8.9,2.2-17.8,2.3-26.7,0-7.9-6.9-15.4-15-15s-15,6.6-15,15h0Z"/>
  <line class="st0" x1="707.5" y1="509.3" x2="806.5" y2="628.8"/>
  <path class="st2" d="M696.9,519.9c29,35,57.9,69.9,86.8,104.9,4,4.9,8.1,9.8,12.2,14.7,5.2,6.2,15.9,5.3,21.2,0,6.2-6.2,5.2-15,0-21.2-29-35-57.9-69.9-86.8-104.9-4-4.9-8.1-9.8-12.2-14.7-5.2-6.2-15.9-5.4-21.2,0-6.2,6.2-5.2,14.9,0,21.2h0Z"/>
</svg>