<?xml version="1.0" encoding="UTF-8"?>
<svg id="Layer_1" xmlns="http://www.w3.org/2000/svg" version="1.1" viewBox="0 0 1080 1080">
  <!-- Generator: Adobe Illustrator 29.1.0, SVG Export Plug-In . SVG Version: 2.1.0 Build 142)  -->
  <defs>
    <style>
      .st0 {
        fill: #f3a405;
      }
    </style>
  </defs>
  <g>
    <path class="st0" d="M826.8,240.4c-80.5-5.9-159-28.3-230.5-65.7l-39-20.4-31,16.5c-74,39.4-155.5,62.7-239.1,68.6l-51.2,3.6-4.4,295c0,165.9,137.1,357.8,318.5,367.1h0c188.2-9.3,325.7-173.5,336.1-352.9V244.8s-59.3-4.4-59.3-4.4ZM853.3,553.1c-9.3,161.1-132.8,308.6-301.8,316.9h0c-162.9-8.4-286-180.7-286-329.7l4-264.9,46-3.2c75.1-5.3,148.3-26.3,214.8-61.6l27.8-14.8,35,18.3c64.3,33.6,134.7,53.7,207,59l53.3,3.9v276.1Z"/>
    <g>
      <path class="st0" d="M826.8,238.5c-55.5-4.2-110.4-16.1-162.6-35.6-35-13.1-67.8-30.3-100.9-47.6s-4.9-3.4-7.5-2.4c-5.3,2-10.4,5.5-15.4,8.2-15.7,8.3-31.3,16.6-47.5,24-50.1,22.9-103.4,38.7-157.8,47-32.8,5-66.1,6.6-99.2,8.9s-1.9.8-1.9,1.9c-.5,31.4-.9,62.8-1.4,94.2-.8,51.8-1.5,103.5-2.3,155.3-.2,14.2-.4,28.4-.6,42.6-.4,25,2.6,50.2,7.9,74.6,15.7,72.2,52.4,140.3,103.1,193.9,50.7,53.7,117.5,93.2,191.6,101.9,9.3,1.1,18.3,1.6,27.7.8,9.4-.7,18.7-1.9,28-3.4,18.9-3.1,37.6-7.9,55.7-14.2,35-12.2,67.8-30.4,97-53.1,58.8-45.7,102.8-109.4,126.8-179.8,11.3-33,19.4-68.7,20.4-103.7.3-9.8,0-19.6,0-29.4,0-49.4,0-98.7,0-148.1,0-41.1,0-82.1,0-123.2s0-4.4,0-6.7-.9-1.8-1.9-1.9c-19.8-1.5-39.6-2.9-59.3-4.4s-2.4,3.6,0,3.8c19.8,1.5,39.6,2.9,59.3,4.4l-1.9-1.9c0,29.7,0,59.4,0,89.2,0,52.2,0,104.3,0,156.5,0,17.1,0,34.2,0,51.4,0,18-1.9,35.8-5,53.6-12.8,73.6-47.1,143.5-98.1,198.2-51.2,54.9-119.1,93.3-193.4,105.6-10.1,1.7-20.3,2.9-30.5,3.6s-17.5-.1-26.2-1.2c-18.5-2.3-36.7-6.5-54.3-12.5-35.2-11.9-67.8-30.8-96.6-54.1-58.1-47-102.1-111.9-126.4-182.4s-19-69.7-20.1-105.7c-.3-10.4,0-20.9.2-31.3.7-47.5,1.4-95,2.1-142.4.6-41.1,1.2-82.2,1.8-123.3v-6.8c-.5.6-1.1,1.2-1.8,1.9,26.1-1.8,52.2-3.1,78.2-6.1,54.5-6.3,108-20,158.7-40.9,20-8.2,39.4-17.5,58.4-27.7,6.2-3.3,12.4-6.6,18.6-9.9s5-2.2,7-3.7,1.2-.5,1.3-.7c-.5,2.3-2.7-1.2-1,.5s4.1,2.2,5.9,3.1l9.2,4.8,18.5,9.7c18.2,9.5,36.7,18.3,55.7,26.1,57.5,23.4,118.5,37.6,180.3,42.3,2.4.2,2.4-3.6,0-3.8Z"/>
      <path class="st0" d="M851.4,553.1c-2.9,49.3-16.5,97.7-39.4,141.4-22.4,42.8-53.6,81-91.8,110.6-38.8,30.1-84.7,50.8-133.1,59.1s-24.8,4.3-37,3.8c-12.4-.5-24.9-2.4-37.1-5.1-23.4-5.1-45.9-13.6-67-24.8-43.1-23-79.9-57-108.7-96.4-28.6-39-49.9-83.7-61.2-130.7s-9-55-8.6-83,.8-53.6,1.2-80.4,1-68.9,1.5-103.4.7-43.8,1-65.7v-3.2c-.6.6-1.2,1.2-1.8,1.9,32.3-2.3,64.6-3.9,96.6-9.2,57.6-9.5,113.5-28.6,165.1-55.9s10.4-5.5,15.6-8.3l9.1-4.8c.6-.3,2.2-.8,2.6-1.4.6-1-1.3-.8-.9,0s4.1,2.1,5,2.6l10.3,5.4c6,3.1,12,6.3,17.9,9.4,49.2,25.7,102.1,43.9,156.8,53.5,35,6.1,70.5,7.8,105.8,10.4l-1.9-1.9c0,31.1,0,62.2,0,93.4,0,49.6,0,99.1,0,148.7s0,22.7,0,34,3.7,2.4,3.8,0c0-31.1,0-62.2,0-93.4,0-49.6,0-99.1,0-148.7,0-11.3,0-22.7,0-34s-.9-1.8-1.9-1.9c-29-2.1-58.2-3.5-87-7.5-58.9-8.2-116.3-26.3-169.2-53.5s-22.7-11.8-34-17.8-4.7-3-8.2-1.1l-18.5,9.9c-46.4,24.7-95.2,43.7-146.7,54.7-39.7,8.5-80,10.9-120.4,13.7-1,0-1.9.8-1.9,1.9-.2,16.2-.5,32.5-.7,48.7-.5,34.4-1,68.8-1.5,103.1s-.9,60.7-1.4,91.1-.1,46.7,3.7,70.1c7.9,47.7,26.4,93.7,52.2,134.4,26.2,41.3,60.4,77.9,101.3,104.9,20,13.2,41.7,24,64.4,31.6,11.4,3.8,23.2,6.9,35,9s23.6,4.1,35.2,3.3c49.6-3.2,97.9-18.8,140-45,41.1-25.6,75.9-60.6,102.4-101.1,27-41.3,45.3-88.4,53.1-137.2,1.9-11.7,3.2-23.5,3.9-35.3s-3.6-2.4-3.8,0Z"/>
    </g>
  </g>
  <path class="st0" d="M558.9,411.3c-65.4,0-118.4,53-118.4,118.4s53,118.4,118.4,118.4,118.4-53,118.4-118.4-53-118.4-118.4-118.4ZM623.9,523.7l-58.6,58.6c-7.4,7.4-18.6,8.9-27.6,4.5-2.9-1.2-5.6-3.1-8-5.5l-28.6-30.2c-9.1-9.6-8.6-24.8.9-33.8h0c9.6-9.1,24.8-8.6,33.8.9l12.5,13.2,41.6-41.6c9.3-9.3,24.5-9.3,33.8,0h0c9.3,9.3,9.3,24.5,0,33.8Z"/>
</svg>