<?xml version="1.0" encoding="UTF-8"?>
<svg id="Layer_2" xmlns="http://www.w3.org/2000/svg" version="1.1" viewBox="0 0 1080 1080">
  <!-- Generator: Adobe Illustrator 29.1.0, SVG Export Plug-In . SVG Version: 2.1.0 Build 142)  -->
  <defs>
    <style>
      .st0, .st1, .st2, .st3 {
        stroke: #f3a405;
        stroke-miterlimit: 10;
      }

      .st0, .st4 {
        fill: #f3a405;
      }

      .st1 {
        fill: #fbb117;
      }

      .st2 {
        fill: none;
      }

      .st3 {
        fill: #fff;
      }
    </style>
  </defs>
  <path class="st0" d="M179.9,893.3c6-21,12-41.9,18-62.9-4.8,3.7-9.6,7.3-14.5,11h453.3c20.8,0,41.9,1.1,62.6,0h.9c-4.8-3.7-9.6-7.3-14.5-11,5.5,20,11,39.9,16.5,59.9l10.5-18.5c-2.4.6,5.4-.3,1.8-.3h-6c-3.9-.3,3.4.7-.9,0s-3.3-.6-5-1c-4.8-1.2-9.4-2.7-14-4.5s-9-4.1-14-6.4c-6.6-2.9-13.5-4.8-20.8-4.6-11.9.3-22.5,5.3-33.2,10.1-8.6,3.9-20.5,8-30.6,8.6-12.1.7-23.9-1.7-34-6.2-12-5.3-22.8-10.3-36.1-10.8s-21.2,2-31,5.4c-9.3,3.2-18.3,7.3-27.7,10.4-4.4,1.4-8.9,2.6-13.5,3.4s2.9,0-1.6.2-1.9,0-2.8.2h-4.6c-1.6,0-4.7-.5-2.1,0-22.3-3.3-39.3-19-63.9-19.4s-31.1,8.7-46,13.7-8.2,2.6-12.4,3.5-4.3.9-6.5,1.2c3.5-.6-.9,0-1.4,0-1.4,0-2.7.2-4.1.2h-7c-2.3,0-4.9-.6-1.7,0-1.2-.2-2.4-.4-3.6-.7-6.3-1.4-10.5-3-15.2-5.5-12.3-6.6-23.3-12.3-37.5-13.3-10.4-.7-21.1,1.5-30.8,5.1-8.9,3.3-17.4,7.6-26,11.5s-3.2,1.2.4-.2c-1,.4-2,.8-3.1,1.2-1.7.6-3.4,1.1-5.1,1.5s-1.7,0-2,.4c1.9-1.6,3.2,0,.4-.2s-1.9,0-1.9,0c2.7.4,3.3.5,1.7.2-.5,0-1-.2-1.5-.4-7.5-2.2-16.7,2.7-18.5,10.5s2.4,16.1,10.5,18.5c16.4,4.8,32.2-4.7,46.7-11.3.8-.4,1.7-.8,2.5-1.1,3.5-1.6-3,1.2.6-.3s3.6-1.4,5.4-2c4.1-1.4,8.2-2.4,12.5-3.2-3.8.7,2,0,3.2,0h3.7c1.2,0,4.1.3,1.8,0-2.4-.2,1.8.3,1.8.3,1.3.3,2.6.6,3.9,1s1.8.5,2.6.8c.9.3,1.8.6,2.7,1-1.3-.5-1.2-.4.5.3,10.8,5.8,21.2,11.9,33.3,14.4,12,2.4,23.7,2.2,35.7,0,16.9-3.1,31.8-11.6,48.1-16,1.5-.4,3-.6,4.4-1,3-.8-3.6,0-.6,0s1.3,0,2,0c1.1,0,2.2,0,3.3.2-3.1-.3,1.5.3,1.8.3,2.9.6,5.7,1.4,8.5,2.4,2.4.8,4.7,1.7,7,2.6,4.5,1.8-1.3-.6,1.3.5s2.3,1,3.5,1.5c5.8,2.5,11.7,5.1,17.7,7.3,22.3,7.9,43.9,3.9,65.4-4.5,9.3-3.6,18.5-7.5,28.3-9.6,9.8-2.1,2.6-.5,4-.7-.6,0-2.9.2,0,0,2.9-.2,4.5-.2,6.8-.2s4.9.4,1.6,0c1.2.2,2.4.4,3.6.7s2.4.6,3.6.9,5.3,1.9,3.9,1.3c12.5,5.2,23.9,11,37.5,12.9,14.5,2.1,29.3,1.4,43.4-2.7,7.2-2.1,14.1-5.1,20.9-8.2,2.7-1.2,5.5-2.5,8.2-3.7-2.4,1,.4,0,1-.4,1.5-.6,3-1.1,4.5-1.5s2.1-.5,3.2-.8c.6,0,1.3-.3,1.9-.4-1.8.2-1.9.3,0,0h4c-2.7-.2.6.2,1.5.4,0,0,4.5,1.5,2.3.6,1.7.7,3.4,1.6,5,2.4,3.8,1.8,7.8,3.5,11.7,5.1,12.9,5.3,28.9,10.5,43,7.2,7.9-1.8,12.6-10.9,10.5-18.5-5.5-20-11-39.9-16.5-59.9s-7.9-11-14.5-11H246.9c-20.8,0-41.8-.7-62.6,0s-.6,0-.9,0c-6.6,0-12.7,4.7-14.5,11-6,21-12,41.9-18,62.9-2.2,7.5,2.6,16.7,10.5,18.5s16.1-2.4,18.5-10.5v.5-.3Z"/>
  <path class="st0" d="M150.9,183.7c6,21,12,41.9,18,62.9s7.8,11,14.5,11h453.3c20.8,0,41.8.7,62.6,0s.6,0,.9,0c6.6,0,12.7-4.7,14.5-11,5.5-20,11-39.9,16.5-59.9,2.1-7.6-2.6-16.6-10.5-18.5-11.4-2.7-24.3.6-35.1,4.3s-12.1,4.6-17.9,7.3-2.9,1.4-4.3,2.1-3.9,1.6-1.8.9c-1.4.5-2.9.8-4.3,1.2-2.9.8,1.7.3-1.5.2s-2.7,0-4-.1c2.8,0,.9.2,0,0-2.4-.6-4.7-1.2-7.1-2s-2.2-.8-3.2-1.2c2.9,1.1-1.6-.7-1.7-.8-2.8-1.3-5.6-2.5-8.5-3.8-12.9-5.6-25.5-9.6-39.6-10.7-13.7-1-28.1,1-40.9,5.9s-12.2,5.5-18.4,8.1c2.2-.9-2.6.9-2.4.8-1.2.4-2.4.7-3.6,1s-2.4.5-3.6.8c-1.8.3-1.9.3-.2,0-.7,0-1.4.1-2.1.1-2.5.1-5,0-7.5-.1s-3-.4,0,0c-1.3-.2-2.6-.4-4-.7-4.8-1-9.6-2.5-14.2-4.2-19.7-7.1-39.2-16.7-60.8-14.1s-24.5,6.4-36.3,11.5-1.9.8-2.8,1.2c-4.5,2,2.6-1-2,.8s-4.6,1.8-7,2.6-4.7,1.5-7.1,2-2.9.6-4.3.8c2.9-.4-1.3,0-1.9,0h-2.4c-3,.2,3.6.9.6.1s-3-.6-4.4-1c-3.6-1-7.2-2.3-10.6-3.6-8.2-3.2-16.4-6.6-24.8-9.3-22.4-6.9-45.4-6.6-66.9,3.3-10.7,5.5-6.2,3.2-9.3,5s-1.8,1.1-2.8,1.6-5.6,2.8-3.2,1.8c-2.5,1.1-5.3,1.9-7.9,2.5s-2.2.4-3.2.6c-1.1.2-.9.1.8-.1-.8,0-1.7.1-2.5.2-2.5.1-4.9,0-7.3-.2-4-.2,3.1.7-.7-.1s-2.3-.4-3.5-.7c-4.5-1.1-8.9-2.6-13.2-4.3s2.9,1.3-.6-.3-2-.9-3.1-1.4c-2-.9-3.9-1.8-5.9-2.8-4.5-2.1-9.1-4.2-13.7-6-8.4-3.3-17.7-4.9-26.5-2.3s-12.7,10.5-10.5,18.5,10.7,12.8,18.5,10.5,2.2-.4,2.2-.5c-.6,1.6-4,0-1.3.3s1.4,0,1.9,0c2.9-.2-3.6-1-.8-.1s6.3,1.9,9.4,3c-4.2-1.4.8.4,1.9.9,1.6.7,3.2,1.5,4.8,2.2,4.5,2.1,9,4.2,13.6,6.1,18.3,7.6,38.3,10.2,57,2.5s19.4-11.2,31-13.8,2.9-.6,4.4-.8c-2.7.4.3,0,1,0,2.6-.2,5.1-.3,7.7-.2s4.5.3,6.8.5c-2.9-.3-.6,0,0,0,1.7.3,3.5.6,5.2,1,16.1,3.6,30.5,12.2,46.5,15.8s20.4,1.4,30.4-1.6,10.9-3.9,16.2-6.2,4.6-2,7-3c0,0,4.6-2,2-.9,1.4-.6,2.8-1.2,4.2-1.7,5-1.9,10-3.5,15.3-4.4s-3.4,0,1.3-.1,3.1-.2,4.7-.1,1.9,0,2.9.1c.9,0,1.9.1,2.8.2-1.7-.2-1.6-.2.2,0,9.6,1.9,18.6,5.1,27.7,8.7,20.2,7.9,41.1,14.4,62.7,7.3,12.8-4.2,21.5-10.2,34.6-12.9,10.9-2.2,23.2-1.2,34.5,2.4s21.5,10.2,34.2,13.6,13.9,2.2,21.1,1.1,13.7-4.6,20.3-7.7,9.1-3.9,14.6-5.5,4.5-1.3,6.8-1.8,1.7-.4,2.5-.5,4.5-.8,1.5-.3,1.8-.1,2.6-.2,2,0,3.1,0,3.8.4,0,0-2-.3-1.2-.1c-3.5-6.2-7-12.3-10.5-18.5-5.5,20-11,39.9-16.5,59.9l14.5-11H246.9c-20.8,0-41.9-1.1-62.6,0s-.6,0-.9,0l14.5,11c-6-21-11.3-42.1-18-62.9s-10.6-12.6-18.5-10.5-12.7,10.6-10.5,18.5v-.2h0Z"/>
  <g>
    <path class="st0" d="M500.4,612c-3.5.8-7.1,1.4-10.7,1.9s-4.4.3.8,0c-.9,0-1.9.2-2.8.3-2,.2-4.1.4-6.1.6-4.8.4-9.7.6-14.5.6s-10.8-.3-16.2-.8c-.7,0-1.3-.2-2-.2.4,0,3.6.6,1,0s-2.7-.4-4.1-.7c-2.9-.5-5.8-1.2-8.6-2s-5-1.5-7.4-2.4-4.3-1.9-1.2-.4c-1.6-.8-3.2-1.5-4.7-2.3-2.3-1.2-4.6-2.6-6.7-4.1s-1.1-.8-1.7-1.2c-1.7-1.1,2,1.8.5.4s-2.4-2.1-3.6-3.2-2-2-3-3.1-3.2-4.2-1.1-1.2c-1.8-2.7-3.5-5.4-5.1-8.3-3.1-5.6-7.1-11.1-11.9-15.4-9.6-8.6-21.4-13.4-34.3-14-24.3-1.3-48.5,13.2-63.4,31.6-19.3,24-25.1,53.6-17.8,83.5s23.1,49.8,46.7,63.8c12.3,7.4,26.7,12.6,41,14.1,20.3,2.2,41.3-6.9,57.4-18.5,28-20.3,46.6-49.9,70.2-74.7,3.3-3.4,6.6-6.8,10.1-10.1s2.2-2,3.4-3,1.1-.9,1.6-1.3c2.5-2.1-2.7,1.9-1.1.8s2.8-1.8,4.2-2.7c2.2-1.5-4.6,1.4-1.3.7-3.9.9-6.9.5-10.9-1.5,7.3,3.6,16.2,2,20.5-5.4,3.9-6.6,1.9-16.9-5.4-20.5-10.4-5.1-19.4,1-27.4,7.5-18.6,15.2-33.9,35.2-48.9,53.8-6,7.4-12.3,14.6-19.2,21.1s-5.6,5-8.5,7.5-.8.6-.3.2c-.7.5-1.4,1.1-2.2,1.6-1.6,1.1-3.1,2.2-4.8,3.3-2.5,1.6-5,3.1-7.6,4.5s-2.6,1.3-3.9,2-1.3.6-1.9.9c-2.5,1.2,2.1-.7.4-.2-4.3,1.3-8.3,2.9-12.8,3.8s-2,.2-2.9.5c4.1-1.4,2.4-.3.6-.2s-3.2.2-4.8.2-2.7-.2-4-.2c-2.7,0,2.6.4,2.1.3s-1.1-.2-1.7-.3c-5-1.1-10-2.4-14.8-4.1s-1.5-.6-2.3-.9c-2.8-1.1,1.3.6.8.4-1.9-.9-3.8-1.7-5.7-2.7-4.1-2.1-7.9-4.5-11.6-7.2s-1-.8-1.5-1.1,2.3,2,1.2.9-2-1.7-3-2.5c-2.2-1.9-4.2-3.9-6.2-6.1s-1.7-1.9-2.5-2.8-.9-1.1-1.4-1.7c-1.3-1.6,1.4,2.2.3.4-1.5-2.7-3.5-5.1-5.1-7.8s-1.6-2.8-2.3-4.3-.7-1.5-1.1-2.3-1.3-2.8-.5-1.1-.9-2.3-1.2-3.1c-.7-1.9-1.3-3.9-1.9-5.9-1-3.5-1.9-7.1-2.5-10.7s-.8-6.8-.5-3.1c-.2-1.8-.3-3.7-.4-5.5-.1-3,0-6,.2-8.9s.2-1.6.2-2.3c-.3,3.4-.2,1.3,0,.5.3-1.7.6-3.4,1-5.1.7-2.7,1.5-5.5,2.4-8.1s.5-1.4.8-2.1c-.2.4-1.4,3-.2.5s1.4-3,2.2-4.5c1.3-2.4,2.7-4.8,4.2-7s1.7-2.4,2.5-3.5c-1.9,2.7.2-.2,1-1.1,1.8-2.1,3.8-4.2,5.9-6.1s2.1-1.9,3.1-2.8,1.1-.9,1.6-1.3c-.7.6-2.1,1.6-.6.5,4.4-3.1,8.9-5.7,13.8-8-3.8,1.8-.2,0,.9-.2s2.4-.8,3.6-1.1,2.1-.5,3.2-.8,1.2-.2,1.8-.4c3.2-.7-.8,0-.8,0,0-.5,6.5-.3,7.1-.3s4.2.5,1.5,0,1.6.3,2.3.5c1.1.3,2.2.6,3.3,1s1.5.4,1.6.6-3-1.5-1.6-.7,6,2.3,6.5,3.8-2.8-2.6-.9-.6.9.8,1.4,1.2c.8.8,1.6,1.6,2.3,2.4s.8,1,1.3,1.5c1.4,1.3-1.5-2.4-.5-.6s1.8,2.6,2.6,4c3.5,6,7.1,11.8,11.8,17,28.4,31.7,78.8,32.5,117.6,24.8.9-.2,1.8-.4,2.7-.6,7.9-1.9,12.6-10.8,10.5-18.5-2.2-8.1-10.5-12.4-18.5-10.5l.4.3h0Z"/>
    <path class="st0" d="M424.2,719.2c8.1,8.8,19,16,29.8,20.9,25.3,11.4,52.1,11.4,77.2-.5,16.8-7.9,31.3-20.9,43.3-34.9,14.1-16.5,30.5-36.8,29.8-59.8s-11.3-33.4-27.1-41.3c-17.1-8.6-36.2-8.6-54.1-2.3-23.1,8.2-42.1,24.7-58.8,42.1-16.3,16.9-32.5,36.3-42.5,57.7s-2.1,16.2,5.4,20.5c6.5,3.8,17.1,2,20.5-5.4,7.6-16.3,18.1-29.6,29.5-42.5,6.8-7.7,14-15,21.6-22s6.4-5.7,9.7-8.3,1.2-.9.7-.5c.8-.6,1.7-1.2,2.5-1.8,2.1-1.5,4.3-2.9,6.5-4.3,8.5-5.2,13.5-7.4,23.5-9.4,1-.2,2.1-.4,3.1-.5-.8,0-2.2.2.8,0s2.7-.2,4,0,2.7.2,4.1.2c-4.4-.3.9.2,2.1.5s3,.9,4.5,1.3c3.5,1.1-2-1.2,1.3.5s2.8,1.4,4.1,2.3,1.2.8,1.7,1.2c2.5,1.6-2-2,.2.2s2,1.9,2.9,2.9.9,1,1.3,1.6c-2.3-2.6-.9-1.3-.5-.5.7,1.2,1.4,2.4,2,3.6-1.9-3.4.3,1,.6,2.4s.3,1.4.4,2.1c-.7-3.6,0-1.1-.2,0s-.2,5.2,0,3.4-.3,1.7-.4,1.8c-.2.9-.4,1.7-.7,2.6s-.6,1.8-.9,2.7c-.9,2.8.8-1.1-.8,1.9-4.5,8.6-10.2,16.6-16.1,23.6-5.8,7-12.1,13.7-19,19.6-.7.6-5,4.1-2.8,2.4-1.4,1.1-2.8,2.1-4.2,3.1-3,2.1-6.1,4-9.3,5.7s-2.7,1.4-4.1,2.1-3.5,1.6-1.2.6-.2,0-.7.3c-2.9,1.1-5.8,2.1-8.8,2.8s-2.8.7-4.3,1-4.6,1.6-.7.2c-2.3.8-5.7.5-8.1.5s-4.9-.2-7.3-.4c-3.4-.3,3.6.7-.5,0s-2.4-.4-3.6-.7c-2.2-.5-4.3-1.1-6.4-1.7s-4.4-2.2-6.3-2.3c2.2,0,3,1.3,1.6.7s-1.3-.6-1.9-.9c-1-.5-2.1-1-3.1-1.5-1.9-1-3.8-2.1-5.7-3.2s-3.2-2-4.7-3.1-1.5-1.1-2.2-1.6c-2.8-2,2.4,1.9.9.7-2.6-2.2-5.4-4.4-7.7-6.9-5.5-6-15.7-5.6-21.2,0s-5.5,15.2,0,21.2l.3-.5h0Z"/>
  </g>
  <g>
    <path class="st4" d="M502.7,452.8c-3.2,7.2-7.6,13.9-12.3,20.2,2.7-3.7-.7.8-1.3,1.5-1.1,1.3-2.2,2.5-3.4,3.7s-2.4,2.4-3.7,3.6-6,4.7-2.6,2.3c-2.9,2-5.8,3.8-9,5.4s2.2-.4.2,0-1.7.6-2.5.8-1.7.5-2.6.7-4.9.4-.8.3c-1.9,0-3.7.2-5.5.1s-1.5-.1-2.3-.2c6,.4-5.8-.8-3.4-.5-4.5-.5-9-.2-13.5.7-7.5,1.6-14.8,5.8-19.9,11.4-11.7,12.8-14.7,30.4-12.2,47.1,6.2,41.7,54.3,66.1,92.7,51.1,6.1-2.4,11.8-5.2,17.1-9.2-.6.4,5.3-4.2,3.5-2.8-1.9,1.5,2-1.4,3.1-2.4s2-1.8,2.8-2.8c10-11.3,14-26.1,14.4-41,.4-13.5-2.6-26.8-5.7-39.9s-5.7-20.4-6.1-30.5c.2,5.1,0,0,0-1.4s-.2-2.2-.2-3.3v-4.6c0-1.5-1,5-.3,2.4s1.1-1.4-1.2,2.7-3.3,4-5,4.9c7.2-3.7,9.3-13.8,5.4-20.5s-13.3-9.1-20.5-5.4c-6.8,3.5-8.4,11.9-8.4,18.8.1,14.7,4,29.8,7.3,43.9,2.8,11.7,4.9,19.1,4.9,30.2s0,3.8-.2,5.7-.2,1.9-.3,2.9c.2-3.4.3-1.6,0-.7-.6,3.3-1.5,6.4-2.5,9.6s1.6-2.9-.2.4-1.1,2-1.7,3-1.7,2-1.7,2.5c.1-2.4,2.5-2.9,1.4-1.8s-.7.9-1.1,1.3c-.8.8-1.8,1.5-2.5,2.4-1.2,1.4,4.1-3.1,2-1.6s-3,2.2-4.4,3.4c-2,1.8,3.5-2.5.8-.6s-4.1,2.8-6.3,4-2.8,1.4-4.3,2.1c3.5-1.6-1.1.3-2.5.8s-3.8,1.1-5.7,1.5-4.1.6-1.8.3-2,0-1.9,0h-6.3c-2.1,0-3.8-.5-1.2,0-1.5-.2-3.1-.6-4.6-.9-5.5-1.3-9.1-2.9-13.9-5.7s-4.6-3.1-3.3-2.1-1-.9-1.1-1c-.8-.7-1.6-1.5-2.4-2.3s-4.1-5.2-1.9-2c-.9-1.3-1.8-2.6-2.6-4s-1.5-2.8-2.2-4.2c-1.6-3.2,1,3.1,0-.3s-.7-2-1-2.9c-.5-1.6-.9-3.3-1.2-5s-.4-2-.4-2c.1,0,.3,3.7.1.5s-.2-3-.2-4.4-.2-7.7,0-2.7c0-2.7,1.4-5.5,2-8.1s-1.7,2.9-.1.3.5-1.1.8-1.6.7-1.3,1.1-1.9c.2-.4.5-.7.7-1.1.9-1.3.6-.9-.8,1,0-.8,2.1-2.2,2.6-2.7,2.1-2.2-2.6,1.4.6-.4s1.3-.6,1.8-1c1.4-1.1-3.6.9-.9.4s1.1-.4,1.6-.5c.6-.2,1.1-.3,1.7-.4.8-.1.7-.1-.2,0l-1.1.2h3.8c.6,0,4.4.4,0,0,1.7.2,3.4.5,5.2.7,5,.6,9.7.2,14.6-.6,17.1-2.8,31.8-14.5,42.3-27.8s11.8-15.8,15.8-24.8,2.1-16.1-5.4-20.5-17.2-2.1-20.5,5.4h.6,0Z"/>
    <path class="st4" d="M530.4,542.8c25.7-2.4,48.6-19.1,56.8-43.9s4-21.6,2.8-32.2-4.6-31.5-13-43.8c-8.6-12.5-21.9-19-37-16.5s-21.5,9.2-28,18.6c-11.2,16.1-11.8,36.8-9.5,55.5s6.3,37.9,15,54.8c3.7,7.2,13.8,9.3,20.5,5.4s9.1-13.3,5.4-20.5-1.1-2.2-1.6-3.3c-1.2-2.4.4,1.3-.6-1.4s-2.2-6.3-3.2-9.5c-2-6.9-3.6-13.8-4.9-20.9s-.6-3.4-.8-5.2c.2,1.4-.2-2.3-.3-2.9-.4-3.7-.7-7.3-.7-11s0-6.6.4-9.9,0-.4,0,0c0-.8.3-1.6.5-2.4.4-1.9.9-3.7,1.5-5.5s0-.6,1-2.5,1.6-3,2.5-4.5c1.6-2.7-.4,0-.3.2,0-.2,1.9-2.1,2.1-2.3.4-.4,2.8-2.4.9-.9s.6-.3,1.1-.7c.7-.5,1.7-.8,2.4-1.3,1.4-1.1-1.7.9-1.5.6s1.4-.5,1.7-.6c.9-.2,1.8-.4,2.6-.7,2.4-.7-2.9,0-.4,0h2.7c0,.4-3.2-.9-1.8-.2s1.2.3,1.8.4,1.2.3,1.3.4c.2.4-2.6-1.8-1.4-.5s3.2,2.1,1.4.7.8.9,1.2,1.3.8.8,1.1,1.3c-.9-1.1-.9-1.5-.2-.1s1.3,2.3,1.9,3.5c1.1,2.2,0-.7.7,1.9s2.1,6.4,2.9,9.7,1.4,5.5,1.9,8.3.4,2.6.7,3.9,0-.6,0-.8c0,.8.2,1.6.3,2.4.5,4.8.5,9.6.2,14.3s0,1,0,1.5c0,1.8.2-1.7.2-1.6.2.6-.4,2.1-.5,2.8-.4,1.9-.9,3.8-1.4,5.6s-.6,1.6-.8,2.4c-.9,2.7.7-1.3.3-.6-.9,1.4-1.5,3-2.3,4.5s-2.5,2.9-2.5,3.7c0-.9,2.4-2.8.6-.8s-1.1,1.2-1.6,1.8c-.9,1-1.9,1.9-2.9,2.8s-1.1.8-1.5,1.3,3.1-2.2.7-.6-4.2,2.8-6.4,3.9-4.9,2.2-2,1-.9.3-1.8.6c-1.9.7-3.8,1.2-5.8,1.7s-2.7.5-4.1.8c-3,.6,4.7-.5,2.2-.3-7.8.7-15.4,6.4-15,15s6.6,15.8,15,15l-.4.3h-.1Z"/>
  </g>
  <g>
    <path class="st0" d="M388.7,391.1c5.9,13.2,16.9,26.8,30.1,33.1,6,2.9,12.3,4.7,19,4.6s3.2-.2,4.8-.4,2.2-.4,3.2-.4c-5.1.2-1.3.5-1,.2s1.1.1,1.4,0c1.6-.4-1.8.2-1.7-.3s4.5,1.4,1.5.2.3.4.8.6-2.4-2.2-.5-.3-1.1-2.3,0-.1.9,1.9,1.5,2.6c.9,1.3-.9-1.5-.7-1.5s.4,1.2.4,1.3c.2.8.3,1.9.7,2.7.7,1.5-.2-1.8-.2-1.7.1.3.1,1.1.1,1.4v3.9c0,.9,0,1.4-.1,1.5-.1.2.7-3.2.2-1.5s-.4,2-.7,3-.7,2-.9,2.9c-.4,1.5.5-1.1.5-1.2-.3.6-.6,1.3-.9,1.9-.6,1.1-1.4,2.1-2,3.2s.6-.8.7-.9c-.4.4-.7.8-1.1,1.2-.8.8-1.7,1.5-2.4,2.3-1,1.2.6-.5.8-.6-.7.4-1.3.9-1.9,1.3-3,1.9-4.7,2.5-8.1,3.4s-1.5.4-2.3.5c.3,0,2-.2.3,0s-3.2.1-4.9,0c-2.9,0,1.6.6-1.1-.1s-2.7-.6-4-1-3.7-1.5-1.7-.6-1.1-.6-1.6-.9c-1.3-.7-2.4-1.6-3.7-2.4s3.7,2.9,1,.8-2.4-1.9-3.6-2.8,3.3,3,2.4,1.9-1.2-1.2-1.7-1.7c-1.7-1.6,1,.7,1,1.4,0-.5-1.1-1.6-1.4-2.1s-.9-2-1-2c.6,0,1.2,3.7.3.5s-.5-1.8-.8-2.7-.6-4.2-.5-2.2,0-2.2,0-2.8v-4.1c0-1.4.2-3,.4-4.5-.2,1.7.6-2.8.8-3.6,2.6-12.2,6.3-24.5,6.8-37s-1.7-14.2-8-17.6-16.3-1.8-20.5,5.4-1.8,16.6,5.4,20.5c-2.1-1.1-4.1-3.5-5.2-5.1s-2.2-4.1-1.7-6.1c-.5,2-.1,4.9-.3,7s.6-3.4,0-.5-.4,2.5-.6,3.7c-.6,3.4-1.3,6.8-2.1,10.2-1.9,8.4-4,16.7-4.8,25.4-1,10.9.7,23.3,7,32.5s4.4,5.8,7.4,8.1c4.6,3.6-1.3-1.3.3.3s2.7,2.1,4,3.1,2.9,2,4.5,2.8c27.3,14.4,62.7,2.2,73.1-27.3,7.9-22.5-4.4-53.5-31.5-52.4-2.2,0-4.3.7-6.5.8,3.9-.2-.7-.2-1.7-.2s-2-.8.8.1c-.7-.2-1.4-.3-2.1-.5s-1-.4-1.5-.5c-1.7-.2,2.5,1.4.2.1s-2.5-1.3-3.6-2.1-.8-.7-1.3-.9c-1.6-.8,1.8,1.7.6.4-1.9-1.9-4-3.7-5.8-5.7s-3-3.8-1.6-1.9-.6-.9-1-1.4c-1.2-1.7-2.3-3.5-3.4-5.3s-1.9-3.5-2.8-5.3c-3.3-7.4-14.1-9.2-20.5-5.4s-8.7,13.1-5.4,20.5l.4.3h0Z"/>
    <path class="st0" d="M391.9,413c-1.9-.2,4,.9,3.1.4s-1.5-.3-2.1-.4c-1-.2-1.9-.5-2.8-.7s-5-1.9-2.1-.6.1,0-.5-.3-1.2-.6-1.8-1-1.4-.9-2.1-1.3-.7-.5-1-.7c-1.9-1.1,2.3,2.2,1.3,1s-2.5-2.4-3.6-3.6,2,3.3.2.1-1-1.8-1.5-2.6c-1.9-3.2.5,2.2,0-.1s-.7-2.2-1-3.3-1.3-4-.4-1.7,0,.4,0-.5-.1-1.7-.1-2.6v-4.5c0-1.5.5-4.7.2-2.9s.5-2.5.7-3.2c.5-2.2,1-4.3,1.6-6.4s.6-2,.9-3,1.4-3.3.6-1.7.8-1,.8-1.2c0-.9.2-.2-.6.6.4-.4,1.1-1,1.5-1.5-1.5,2-1.8,1.2-.6.6-.4.2-3.4,1-1,.4s-2.8.1-.9,0c3.1-.1-1.9-1.1,0-.1,3.5,1.8-1.5-1.4.6,0s1.1.7,1.6.9c2,1-1-.7-.9-.7.2,0,.8.8,1,.9,1.9,1.9.3-.4-.3-.7.5.2,1.1,1.8,1.4,2.2,2.3,3.7,0-.4.9,1.8s.6,2.1.9,3.2.5,3.6.3,1.7c.5,5,0,10.3-.6,15.3,0-.7.3-1.9-.2,1.3s-.4,2.3-.6,3.5c-.5,2.6-1.1,5.2-1.8,7.7s-1.3,4.7-2.2,7.1-.7,1.9-1,2.8c.9-2.3-.3.4-.6,1.2-3.7,7.2-1.9,16.3,5.4,20.5s16.8,1.9,20.5-5.4c5.2-10.3,8.2-21.6,9.8-33s2.6-25.7-2.6-37.9c-8.1-19.2-31.9-30.1-49.4-15.2s-11.5,17.8-13.5,27.8-2.5,18.5-.8,27.8,10.4,24,21.5,30.7,14.4,6.4,22.1,7.1,15.3-7.4,15-15-6.6-14.2-15-15l-.3.2h0Z"/>
  </g>
  <path class="st2" d="M615.3,641.3c-17.6-29-26-63.8-23.2-97.6,2.9-34.4,16-66.5,38-93.1,19.8-23.9,46.3-41.2,75.4-50.5-3.1-25.1-6.5-50.3-9.8-75.4-2.8-22-5.7-44-8.5-66-16.8.3-33.7-.4-50.5-.4H196.9c-2.8,28.3-6.6,56.4-9.8,84.6-3.3,28.8-2.2,15.8-9.9,86.6s-7.2,142.1.7,212.8c3.8,34.1,7.6,68.1,11.4,102.1,2.4,22.2,4.9,44.4,7.4,66.6,16.7-.3,33.5.4,50.2.4h439.8c2.9-26.3,6.9-52.7,10.1-78.9.9-7.3,1.9-14.7,2.8-22-4.2-1.5-8.3-3.1-12.3-4.9-29.7-13.4-55.1-36.5-72-64.3h0Z"/>
  <path class="st2" d="M685.1,827v-.6c-.2,2-2.5,25.8,0,.6Z"/>
  <path class="st2" d="M700.2,258.3h0c-.3,0,19.2-1,0,0Z"/>
  <path class="st2" d="M183.4,811.4h0c.3,0-19.2,1,0,0Z"/>
  <path class="st1" d="M168.5,826.8c.5,4.5,2.8,24.6,0,0h0Z"/>
  <path class="st0" d="M183.4,811.4l15,15c-.6-5.1-1.1-10.3-1.7-15.4-4.1,0-8.3.2-12.4.4h-.9Z"/>
  <path class="st1" d="M183.4,228h0Z"/>
  <path class="st1" d="M685.1,826.2h0s0-.1,0,0Z"/>
  <path class="st1" d="M182.1,228.1h1.2c-1,0-17.7.5-1.2,0Z"/>
  <path class="st0" d="M696.8,732.5c-3.3,26.2-7.2,52.6-10.1,78.9h13.5v-.4c8.3,0,14.4,6.7,15,14.7,3.3-26.1,6.5-52.2,9.7-78.4,1.1-9.1,2.4-19.1,3.7-29.4-10-1.7-19.8-4.2-29-7.4-.9,7.3-1.9,14.7-2.8,22h0Z"/>
  <path class="st1" d="M710.6,836.7c2.9-2.7,4.8-6.6,4.6-10.7v-.3.5c-.5,4.2-2,7.8-4.5,10.5h0Z"/>
  <path class="st0" d="M700.2,811v.4h-13.5c-.5,4.4-1,8.7-1.4,13.1,0,.9-.2,1.7-.2,2.5-.3,6.7,6.2,13,12.7,14.1h2.4c3.8,0,7.6-1.7,10.4-4.3,2.5-2.6,4-6.3,4.5-10.5v-.5c-.6-7.9-6.7-14.7-15-14.7h0Z"/>
  <path class="st0" d="M700.2,258.3l-15-15c.7,5.1,1.3,10.3,2,15.4,4,0,8.1-.2,12.1-.4h.9Z"/>
  <path class="st0" d="M685.1,827c-2.5,25.2,0,1.4,0-.6h0q0,0,0,0v.6c0-.8.2-1.6.2-2.5.4-4.4.9-8.7,1.4-13.1H246.9c-16.7,0-33.5-.7-50.2-.4.6,5.1,1.1,10.3,1.7,15.4l-15-15c-19.3,1,.3,0,0,0h.9c4.1-.2,8.2-.3,12.4-.4-2.5-22.2-5-44.3-7.4-66.6-3.8-34-7.6-68-11.4-102.1-7.9-70.7-8.4-142-.7-212.8s6.6-57.8,9.9-86.6c3.2-28.2,7-56.3,9.8-84.6h-13.5l15-15c-.1.6-.2,1.2-.2,1.8-.4,4.4-.8,8.8-1.3,13.2h439.8c16.8,0,33.7.7,50.5.4-.7-5.1-1.3-10.3-2-15.4l15,15c19.3-1-.3,0,0,0h-.9c-4,.2-8.1.3-12.1.4,2.8,22,5.7,44,8.5,66,3.2,25.1,6.7,50.3,9.8,75.4,9.5-3.1,19.3-5.3,29.2-6.6-2.3-18.1-4.8-36.1-7.2-54.2-4.4-33.6-8.1-62.9-12.2-94.4,0-.6-.2-1.2-.2-1.8-1-8-6-15-15-15H246.9c-20.8,0-41.8-.6-62.6,0h-2.2c-8,.6-12.9,7.2-13.7,14.9-3.2,27.9-6.4,55.8-9.5,83.7s-7.3,64.2-11,96.3c-8.1,71.6-8.3,144-.4,215.7,3.3,29.8,6.6,59.7,10,89.5,3.6,32,7.1,64.1,10.7,96.1.1.9.2,1.7.3,2.5,0-.6,0-.9,0-.8.9,8.1,6.1,15,15,15h453.3c20.3,0,40.8.6,61.1,0-6.5-1.1-13.1-7.4-12.7-14.1h0Z"/>
  <path class="st1" d="M699.3,841h-1.5c.8,0,1.6.2,2.3.2,4.5-.2,8-1.9,10.5-4.5-2.8,2.7-6.6,4.3-10.4,4.3h-.9,0Z"/>
  <path class="st0" d="M198.4,243.3l-15,15h13.5c.4-4.4.9-8.8,1.3-13.2,0-.6,0-1.2.2-1.8h0Z"/>
  <path class="st3" d="M862.7,637.8h0c0,.2-.2.3,0,0Z"/>
  <path class="st3" d="M863.1,475c0-.1-.3-.4-.5-.6,0,0,0,.1.2.2,0,.1.2.2.3.4Z"/>
  <path class="st3" d="M622.7,574.4v.3-.3Z"/>
  <path class="st3" d="M622.8,575.1v-.4.4Z"/>
  <path class="st3" d="M703.4,680.1h0c-.6-.2-1.1-.4,0,0Z"/>
  <path class="st3" d="M622.9,575.7c0-.3,0-.5,0-.7,0,.5,0,.9,0,.7Z"/>
  <path class="st3" d="M649.6,638.7c.2.2.3.4.4.5.2.3-.2-.2-.4-.5Z"/>
  <path class="st3" d="M880,608.1v.2c-.4.8-1,2.6,0-.2Z"/>
  <path class="st3" d="M703.4,680.1h0c.2,0,.4,0,.7.3,0,0-.2,0-.3,0,0,0-.2,0-.3,0h-.1Z"/>
  <path class="st0" d="M606.4,556.3c0-65.5,42.2-121.2,100.9-141.3-.2-1.4-.3-2.7-.5-4.1-.4-3.6-.9-7.2-1.3-10.8-29.1,9.4-55.6,26.6-75.4,50.5-22,26.6-35.1,58.7-38,93.1-2.8,33.8,5.6,68.6,23.2,97.6,16.9,27.8,42.3,50.9,72,64.3,4,1.8,8.1,3.4,12.3,4.9.6-5,1.3-10,1.9-15-55.7-21.7-95.1-75.9-95.1-139.2h0Z"/>
  <path class="st0" d="M905.5,541.4h-1c.5,4.9.7,9.8.7,14.8s-.3,10.1-.7,15h.9c8.1-.4,15-6.6,15-15v-2c-.9-7.8-7.4-13.3-14.9-12.9h0Z"/>
  <path class="st0" d="M755.8,406.9c77.5,0,141.2,59,148.7,134.6h1c7.4-.4,13.9,5.1,14.9,12.9-1.1-68.1-44.6-128.9-108.4-152.6-24.9-9.2-51.5-11.7-77.3-8.3.6,4.9,1.2,9.8,1.8,14.7,6.3-.8,12.8-1.2,19.3-1.2h0Z"/>
  <path class="st0" d="M920.4,554.3v2c0,8.4-6.9,14.6-15,15h-.9c-7.5,75.5-71.2,134.4-148.7,134.4s-17.2-.7-25.4-2.2c-.6,4.8-1.2,9.6-1.8,14.4,19.9,3.3,41,3.4,60.9-.6,65.3-13,118.7-68.3,128.7-134.2,1.4-8.9,2.2-17.8,2.3-26.7,0-.7,0-1.4,0-2.1Z"/>
  <path class="st0" d="M706.8,410.9c.2,1.4.3,2.7.5,4.1,9.3-3.2,19.1-5.5,29.2-6.8-.6-4.9-1.2-9.8-1.8-14.7-9.9,1.3-19.7,3.6-29.2,6.6.4,3.6.9,7.2,1.3,10.8Z"/>
  <path class="st0" d="M701.5,695.5c-.6,5-1.3,10-1.9,15,9.2,3.2,18.9,5.7,29,7.4.6-4.7,1.2-9.5,1.8-14.4-10-1.7-19.7-4.4-28.9-8h0Z"/>
  <path class="st1" d="M649.6,638.7h0c-.3-.5,0-.2,0,0Z"/>
  <path class="st1" d="M674,663c0,0-.3-.2-.4-.3.2,0,.3.2.4.3Z"/>
  <path class="st1" d="M880,608.1v.2-.2Z"/>
  <path class="st1" d="M889.1,575v.7c.2-1.7.2-1.4,0-.7Z"/>
  <path class="st1" d="M632.1,608.9c-1.3-2.8.6,1.8,0,0h0Z"/>
  <path class="st1" d="M862.8,637.7h0c0-.1.2-.1,0,0Z"/>
  <path class="st1" d="M838.1,662.7c-.3.3-.7.5-1,.7,0,0,0,0,1-.7Z"/>
  <path class="st1" d="M703.7,432.5c2.1-1-2.1.8,0,0h0Z"/>
  <path class="st1" d="M862.7,637.8h0q0,0,0,0Z"/>
  <path class="st1" d="M622.7,574.7v.4c0,0,0,.4,0,.7,0,0,0-.5-.2-1.3v.3h.1Z"/>
  <path class="st1" d="M862.2,638.5s.2-.2.3-.4c0,0,.2-.2.2-.3h0c0,0-.4.4-.6.7h0Z"/>
  <path class="st1" d="M649.6,474c-.3.4-1.6,2.2,0,0h0Z"/>
  <path class="st1" d="M863.3,637c-.4.6-1.5,2-1.1,1.5.2-.3.5-.6.6-.8.3-.4.7-1,.5-.7Z"/>
  <path class="st0" d="M904.5,541.5c-7.6.9-14,6.9-14,14.9h0c0,7.4,6.4,14.7,14.1,14.9.5-4.9.7-9.9.7-15s-.3-9.9-.7-14.8h0Z"/>
  <path class="st0" d="M703.4,680.1h0c-1-.4-2-.9-2.9-1.3-6.6-3-12.9-6.6-18.9-10.5-5.7-3.7-5.4-3.7-7.6-5.3,0,0-.2-.2-.4-.3,0,0,.3.2.4.3,1.4,1-1.8-1.4-2.5-2-1.7-1.4-3.3-2.8-4.9-4.3-5.3-4.8-10.3-10-14.9-15.5-1.3-1.6-2-2.4-2.3-2.7h0c.3.5.7.9.4.6s-.3-.3-.4-.5c-.2-.3-.4-.5,0,0-.6-.7-1.1-1.4-.2-.4,1.1,1.4-.6-.8-.8-1.1-.5-.7-1-1.4-1.5-2.1-2.1-3-4.2-6.1-6.1-9.3s-3.5-6.1-5.1-9.2-1.6-3.1-2.3-4.7-.7-1.6-1.1-2.4c0,0,0-.2-.2-.4.6,1.8-1.3-2.8,0,0,0-.2-.2-.5-.3-.9-2.6-6.7-4.8-13.4-6.5-20.3s-1.6-7-2.2-10.6c0-.6-.2-1-.2-1.4,0,.2,0-.2,0-.7v-.7c-.3-2.3-.5-4.6-.7-6.9-.6-7.7-.5-15.3,0-23s.3-3.7.5-5.5.5-3.3.2-1.4.2-1,.2-1.4c.6-3.8,1.4-7.6,2.3-11.3,1.7-7.1,4-14.1,6.8-20.9-.9,2,2.8-6.8,0,0,.9-2,.7-1.6,1.1-2.4.7-1.6,1.5-3.2,2.3-4.8,1.7-3.3,3.5-6.6,5.4-9.8,1.9-3.2,3.7-5.9,5.7-8.8s2-2.8,3.1-4.2c.8-1,1.6-2,2.5-3,4.6-5.5,9.6-10.7,15-15.4,5.4-4.7,2.6-2.3,4-3.4s1.3-1.1,2-1.7,2.5-1.9,1.1-.8,2.1-1.5,2.7-1.9c1.8-1.3,3.6-2.5,5.4-3.7,6.1-3.9,12.4-7.4,19-10.5.8-.4,1.6-.7,2.4-1.1-2.1.8,2.1-1,0,0,2.1-.8,3.3-1.3,5-1.9h.2c-.5-5.2-1.1-10.4-1.7-15.5-58.7,20.2-100.9,75.8-100.9,141.3s39.4,117.5,95.1,139.2c.6-5.1,1.3-10.2,1.9-15.4-1.1-.4-.6-.3,0,0h0Z"/>
  <path class="st0" d="M890.4,556.4h-.2c0,3.6,0,7.3-.4,11.1s-.3,3.7-.5,5.5c0,1.2-.2,1.6-.2,2,0-.7.2-1,0,.7v-.7c0,.7-.3,2-.4,2.1-1.2,7.3-3,14.5-5.3,21.6s-2.2,6.3-3.4,9.4c-1.1,2.8-.4,1,0,.2-.3.7-.6,1.5-1,2.2-.9,2-1.9,4-2.9,5.9-3.3,6.4-7,12.6-11.2,18.5-1.1,1.6-1.7,2.4-2,2.8h0c-.2.4-.2.3,0,0,0,0,0,.2-.2.3,0,.2-.2.3-.3.4-.2.3-.4.6-.5.7-.5.7-1.1,1.4-1.7,2-2.4,2.8-4.8,5.6-7.4,8.3s-4.9,4.9-7.5,7.2-2.6,2.3-3.9,3.4-1.3,1.1-2,1.7c-.5.4-1.9,1.5-2.1,1.6.3-.2.7-.5,1-.7-.9.6-1.1.8-1,.7-5.3,3.9-10.7,7.5-16.5,10.7-6.1,3.4-6.2,3.3-9.4,4.8s-5.3,2.3-2.5,1.1c-2,.8-4.1,1.6-6.2,2.4-6.9,2.5-14.1,4.5-21.3,5.9-1.8.4-3.6.7-5.3,1s-3.3.5-1.4.2-1,0-1.4.2c-3.9.4-7.8.7-11.7.9-7.7.3-15.3,0-22.9-.9s-3.3-.5-1.4-.2-1-.2-1.4-.2c-1.2-.2-2.3-.4-3.5-.6-.6,5-1.2,9.9-1.9,14.9,8.3,1.4,16.8,2.2,25.4,2.2,77.5,0,141.1-58.9,148.7-134.4-7.7-.2-14-7.5-14.1-14.9h0Z"/>
  <path class="st0" d="M739.4,423c7.4-.8,14.8-1.1,22.2-.8,7.4.3,7.4.4,11,.8.8,0,1.3.1,1.6.2-.5,0-.6-.1,1.1.1,2.2.4,4.5.8,6.7,1.2,7.2,1.5,14.3,3.5,21.3,6s3.3,1.3,5,1.9c-2-.9,1.7.6,0,0,2,.9,1.6.7,2.4,1.1,3.4,1.6,6.7,3.2,10,5.1s6.1,3.5,9,5.4,3.4,2.2,4.3,2.9,1.6,1.2,2.1,1.5c.7.5,3.1,2.3,1.6,1.2s.7.6,1.1.8c.7.5,1.4,1.1,2,1.7,1.3,1.1,2.7,2.2,4,3.4,2.8,2.5,5.4,5,8,7.7s4.7,5.1,7,7.7c1.9,2.2,2.2,2.6,2.8,3.5.2.2.4.5.5.6.8,1.1,1.5,2.1,2.3,3.2,4.1,5.9,7.9,12.1,11.1,18.6.8,1.6,1.6,3.2,2.3,4.8s.7,1.6,1.1,2.4c-.8-2.1,1,2.1,0,0,1.4,3.5,2.7,7,3.9,10.6,2.3,7.1,4,14.3,5.2,21.6s.5,3.3.2,1.4,0,1,.2,1.4c.2,1.8.4,3.7.5,5.5.3,3.9.4,7.9.5,11.8h0c0-8,6.3-14,14-14.9-7.4-75.6-71.2-134.6-148.7-134.6s-13,.4-19.3,1.2c.6,5,1.2,10,1.7,15.1.6,0,1.2-.2,1.3-.2h0Z"/>
  <path class="st1" d="M774.2,423.2c1.3.1.4,0,1.1.1-1.7-.2-1.6-.2-1.1-.1Z"/>
  <path class="st1" d="M879.9,504c1,2.1-.8-2.1,0,0h0Z"/>
  <path class="st1" d="M808.3,432.4c1.7.6-2-.9,0,0h0Z"/>
  <path class="st1" d="M632,504c2.8-6.8-.9,2,0,0h0Z"/>
  <path class="st1" d="M774.2,423.2c.3,0,.9.1,1.1.1-.7,0,.3,0-1.1-.1Z"/>
  <path class="st1" d="M862.8,474.6s0-.1-.2-.2c-.4-.5-.7-.9.2.2Z"/>
  <path class="st1" d="M863.1,475c0-.1-.2-.3-.3-.4,0,.1.2.2.3.4Z"/>
  <path class="st1" d="M704.1,680.4s-.2,0-.3,0c0,0,.2,0,.3,0Z"/>
  <path class="st1" d="M703.4,680.1h0c0,0,.2,0,.3,0,0,0-.2,0-.3-.2h0Z"/>
  <path class="st0" d="M730.4,688.3c-3.7-.7-7.5-1.6-11.1-2.7s-6.8-2.1-10.2-3.3-3.3-1.3-5-1.9c-.3,0-.5-.2-.7-.3-.6,5.1-1.3,10.2-1.9,15.4,9.2,3.6,18.9,6.3,28.9,8,.6-4.9,1.2-9.9,1.9-14.9-.6,0-1.2-.2-1.8-.4h-.1Z"/>
  <path class="st0" d="M719.5,427.1c3.6-1,7-1.8,10.5-2.5s3.6-.7,5.3-1,1.8-.3,2.7-.4c-2.2.3-1,.2,0,0-.5-5-1.1-10-1.7-15.1-10.1,1.3-19.8,3.6-29.2,6.8.6,5.2,1.2,10.4,1.7,15.5,3.5-1.3,7-2.4,10.6-3.4h0Z"/>
  <line class="st2" x1="849.2" y1="672.1" x2="948.2" y2="791.7"/>
  <path class="st0" d="M838.6,682.7c28.9,35,57.9,69.9,86.8,104.9,4.1,4.9,8.1,9.8,12.2,14.7s15.9,5.4,21.2,0c6.2-6.2,5.2-15,0-21.2-28.9-35-57.9-69.9-86.8-104.9-4.1-4.9-8.1-9.8-12.2-14.7s-15.9-5.4-21.2,0c-6.2,6.2-5.2,15,0,21.2h0Z"/>
</svg>