<?xml version="1.0" encoding="UTF-8"?>
<svg id="Layer_2" data-name="Layer 2" xmlns="http://www.w3.org/2000/svg" viewBox="0 0 821.39 743.69">
  <defs>
    <style>
      .cls-1 {
        fill: none;
      }

      .cls-2 {
        fill: #fbb117;
      }

      .cls-3 {
        fill: #fff;
      }
    </style>
  </defs>
  <g id="Layer_1-2" data-name="Layer 1">
    <g>
      <path class="cls-3" d="M38.2,731.33c6-21,12-41.9,18-62.9-4.8,3.7-9.6,7.3-14.5,11h453.3c20.8,0,41.9,1.1,62.6,0h.9c-4.8-3.7-9.6-7.3-14.5-11,5.5,20,11,39.9,16.5,59.9l10.5-18.5c-2.4.6,5.4-.3,1.8-.3s-4,0-6-.1c-3.9-.3,3.4.7-.9-.1s-3.3-.6-5-1c-4.8-1.2-9.4-2.7-14-4.5s-9-4.1-14-6.4c-6.6-2.9-13.5-4.8-20.8-4.6-11.9.3-22.5,5.3-33.2,10.1-8.6,3.9-20.5,8-30.6,8.6-12.1.7-23.9-1.7-34-6.2-12-5.3-22.8-10.3-36.1-10.8s-21.2,2-31,5.4c-9.3,3.2-18.3,7.3-27.7,10.4-4.4,1.4-8.9,2.6-13.5,3.4s2.9,0-1.6.2-1.9.1-2.8.2h-4.6c-1.6,0-4.7-.5-2.1,0-22.3-3.3-39.3-19-63.9-19.4s-31.1,8.7-46,13.7-8.2,2.6-12.4,3.5-4.3.9-6.5,1.2c3.5-.6-.9,0-1.4,0-1.4.1-2.7.2-4.1.2-2.3,0-4.7,0-7-.1s-4.9-.6-1.7-.1c-1.2-.2-2.4-.4-3.6-.7-6.3-1.4-10.5-3-15.2-5.5-12.3-6.6-23.3-12.3-37.5-13.3-10.4-.7-21.1,1.5-30.8,5.1-8.9,3.3-17.4,7.6-26,11.5s-3.2,1.2.4-.2c-1,.4-2,.8-3.1,1.2-1.7.6-3.4,1.1-5.1,1.5s-1.7.1-2,.4c1.9-1.6,3.2,0,.4-.2s-1.9-.1-1.9,0c2.7.4,3.3.5,1.7.2-.5-.1-1-.2-1.5-.4-7.5-2.2-16.7,2.7-18.5,10.5s2.4,16.1,10.5,18.5c16.4,4.8,32.2-4.7,46.7-11.3.8-.4,1.7-.8,2.5-1.1,3.5-1.6-3,1.2.6-.3s3.6-1.4,5.4-2c4.1-1.4,8.2-2.4,12.5-3.2-3.8.7,2-.1,3.2-.1h3.7c1.2,0,4.1.3,1.8,0-2.4-.2,1.8.3,1.8.3,1.3.3,2.6.6,3.9,1s1.8.5,2.6.8c.9.3,1.8.6,2.7,1-1.3-.5-1.2-.4.5.3,10.8,5.8,21.2,11.9,33.3,14.4,12,2.4,23.7,2.2,35.7,0,16.9-3.1,31.8-11.6,48.1-16,1.5-.4,3-.6,4.4-1,3-.8-3.6,0-.6.1s1.3,0,2,0c1.1,0,2.2,0,3.3.2-3.1-.3,1.5.3,1.8.3,2.9.6,5.7,1.4,8.5,2.4,2.4.8,4.7,1.7,7,2.6,4.5,1.8-1.3-.6,1.3.5s2.3,1,3.5,1.5c5.8,2.5,11.7,5.1,17.7,7.3,22.3,7.9,43.9,3.9,65.4-4.5,9.3-3.6,18.5-7.5,28.3-9.6,9.8-2.1,2.6-.5,4-.7-.6,0-2.9.2,0,0,2.9-.2,4.5-.2,6.8-.2s4.9.4,1.6,0c1.2.2,2.4.4,3.6.7s2.4.6,3.6.9,5.3,1.9,3.9,1.3c12.5,5.2,23.9,11,37.5,12.9,14.5,2.1,29.3,1.4,43.4-2.7,7.2-2.1,14.1-5.1,20.9-8.2,2.7-1.2,5.5-2.5,8.2-3.7-2.4,1,.4-.1,1-.4,1.5-.6,3-1.1,4.5-1.5s2.1-.5,3.2-.8c.6-.1,1.3-.3,1.9-.4-1.8.2-1.9.3,0,.1h4c-2.7-.2.6.2,1.5.4-.1,0,4.5,1.5,2.3.6,1.7.7,3.4,1.6,5,2.4,3.8,1.8,7.8,3.5,11.7,5.1,12.9,5.3,28.9,10.5,43,7.2,7.9-1.8,12.6-10.9,10.5-18.5-5.5-20-11-39.9-16.5-59.9s-7.9-11-14.5-11H105.2c-20.8,0-41.8-.7-62.6,0s-.6,0-.9,0c-6.6,0-12.7,4.7-14.5,11-6,21-12,41.9-18,62.9-2.2,7.5,2.6,16.7,10.5,18.5s16.1-2.4,18.5-10.5v.5Z"/>
      <path class="cls-3" d="M9.2,21.73c6,21,12,41.9,18,62.9s7.8,11,14.5,11h453.3c20.8,0,41.8.7,62.6,0s.6,0,.9,0c6.6,0,12.7-4.7,14.5-11,5.5-20,11-39.9,16.5-59.9,2.1-7.6-2.6-16.6-10.5-18.5-11.4-2.7-24.3.6-35.1,4.3s-12.1,4.6-17.9,7.3-2.9,1.4-4.3,2.1-3.9,1.6-1.8.9c-1.4.5-2.9.8-4.3,1.2-2.9.8,1.7.3-1.5.2s-2.7,0-4-.1c2.8,0,.9.2.1,0-2.4-.6-4.7-1.2-7.1-2s-2.2-.8-3.2-1.2c2.9,1.1-1.6-.7-1.7-.8-2.8-1.3-5.6-2.5-8.5-3.8-12.9-5.6-25.5-9.6-39.6-10.7-13.7-1-28.1,1-40.9,5.9s-12.2,5.5-18.4,8.1c2.2-.9-2.6.9-2.4.8-1.2.4-2.4.7-3.6,1s-2.4.5-3.6.8c-1.8.3-1.9.3-.2,0-.7,0-1.4.1-2.1.1-2.5.1-5,0-7.5-.1s-3-.4,0,0c-1.3-.2-2.6-.4-4-.7-4.8-1-9.6-2.5-14.2-4.2-19.7-7.1-39.2-16.7-60.8-14.1s-24.5,6.4-36.3,11.5-1.9.8-2.8,1.2c-4.5,2,2.6-1-2,.8s-4.6,1.8-7,2.6-4.7,1.5-7.1,2-2.9.6-4.3.8c2.9-.4-1.3,0-1.9,0h-2.4c-3,.2,3.6.9.6.1s-3-.6-4.4-1c-3.6-1-7.2-2.3-10.6-3.6-8.2-3.2-16.4-6.6-24.8-9.3-22.4-6.9-45.4-6.6-66.9,3.3s-6.2,3.2-9.3,5-1.8,1.1-2.8,1.6-5.6,2.8-3.2,1.8c-2.5,1.1-5.3,1.9-7.9,2.5s-2.2.4-3.2.6c-1.1.2-.9.1.8-.1-.8,0-1.7.1-2.5.2-2.5.1-4.9,0-7.3-.2-4-.2,3.1.7-.7-.1s-2.3-.4-3.5-.7c-4.5-1.1-8.9-2.6-13.2-4.3s2.9,1.3-.6-.3-2-.9-3.1-1.4c-2-.9-3.9-1.8-5.9-2.8-4.5-2.1-9.1-4.2-13.7-6C38,2.13,28.7.53,19.9,3.13S7.2,13.63,9.4,21.63s10.7,12.8,18.5,10.5,2.2-.4,2.2-.5c-.6,1.6-4,0-1.3.3s1.4,0,1.9,0c2.9-.2-3.6-1-.8-.1s6.3,1.9,9.4,3c-4.2-1.4.8.4,1.9.9,1.6.7,3.2,1.5,4.8,2.2,4.5,2.1,9,4.2,13.6,6.1,18.3,7.6,38.3,10.2,57,2.5s19.4-11.2,31-13.8,2.9-.6,4.4-.8c-2.7.4.3,0,1,0,2.6-.2,5.1-.3,7.7-.2s4.5.3,6.8.5c-2.9-.3-.6,0,0,0,1.7.3,3.5.6,5.2,1,16.1,3.6,30.5,12.2,46.5,15.8s20.4,1.4,30.4-1.6,10.9-3.9,16.2-6.2,4.6-2,7-3c0,0,4.6-2,2-.9,1.4-.6,2.8-1.2,4.2-1.7,5-1.9,10-3.5,15.3-4.4s-3.4,0,1.3-.1,3.1-.2,4.7-.1,1.9,0,2.9.1c.9,0,1.9.1,2.8.2-1.7-.2-1.6-.2.2,0,9.6,1.9,18.6,5.1,27.7,8.7,20.2,7.9,41.1,14.4,62.7,7.3,12.8-4.2,21.5-10.2,34.6-12.9,10.9-2.2,23.2-1.2,34.5,2.4s21.5,10.2,34.2,13.6,13.9,2.2,21.1,1.1,13.7-4.6,20.3-7.7,9.1-3.9,14.6-5.5,4.5-1.3,6.8-1.8,1.7-.4,2.5-.5,4.5-.8,1.5-.3,1.8-.1,2.6-.2,2,0,3.1,0,3.8.4,0,0-2-.3-1.2-.1c-3.5-6.2-7-12.3-10.5-18.5-5.5,20-11,39.9-16.5,59.9l14.5-11H105.2c-20.8,0-41.9-1.1-62.6,0s-.6,0-.9,0l14.5,11c-6-21-12-41.9-18-62.9S27.6,1.33,19.7,3.43,7,14.03,9.2,21.93v-.2Z"/>
      <g>
        <path class="cls-3" d="M358.7,450.03c-3.5.8-7.1,1.4-10.7,1.9s-4.4.3.8,0c-.9,0-1.9.2-2.8.3-2,.2-4.1.4-6.1.6-4.8.4-9.7.6-14.5.6s-10.8-.3-16.2-.8c-.7,0-1.3-.2-2-.2.4,0,3.6.6,1,.1s-2.7-.4-4.1-.7c-2.9-.5-5.8-1.2-8.6-2s-5-1.5-7.4-2.4-4.3-1.9-1.2-.4c-1.6-.8-3.2-1.5-4.7-2.3-2.3-1.2-4.6-2.6-6.7-4.1s-1.1-.8-1.7-1.2c-1.7-1.1,2,1.8.5.4s-2.4-2.1-3.6-3.2-2-2-3-3.1-3.2-4.2-1.1-1.2c-1.8-2.7-3.5-5.4-5.1-8.3-3.1-5.6-7.1-11.1-11.9-15.4-9.6-8.6-21.4-13.4-34.3-14-24.3-1.3-48.5,13.2-63.4,31.6-19.3,24-25.1,53.6-17.8,83.5s23.1,49.8,46.7,63.8c12.3,7.4,26.7,12.6,41,14.1,20.3,2.2,41.3-6.9,57.4-18.5,28-20.3,46.6-49.9,70.2-74.7,3.3-3.4,6.6-6.8,10.1-10.1s2.2-2,3.4-3,1.1-.9,1.6-1.3c2.5-2.1-2.7,1.9-1.1.8s2.8-1.8,4.2-2.7c2.2-1.5-4.6,1.4-1.3.7-3.9.9-6.9.5-10.9-1.5,7.3,3.6,16.2,2,20.5-5.4,3.9-6.6,1.9-16.9-5.4-20.5-10.4-5.1-19.4,1-27.4,7.5-18.6,15.2-33.9,35.2-48.9,53.8-6,7.4-12.3,14.6-19.2,21.1s-5.6,5-8.5,7.5-.8.6-.3.2c-.7.5-1.4,1.1-2.2,1.6-1.6,1.1-3.1,2.2-4.8,3.3-2.5,1.6-5,3.1-7.6,4.5s-2.6,1.3-3.9,2-1.3.6-1.9.9c-2.5,1.2,2.1-.7.4-.2-4.3,1.3-8.3,2.9-12.8,3.8s-2,.2-2.9.5c4.1-1.4,2.4-.3.6-.2s-3.2.2-4.8.2-2.7-.2-4-.2c-2.7-.1,2.6.4,2.1.3s-1.1-.2-1.7-.3c-5-1.1-10-2.4-14.8-4.1s-1.5-.6-2.3-.9c-2.8-1.1,1.3.6.8.4-1.9-.9-3.8-1.7-5.7-2.7-4.1-2.1-7.9-4.5-11.6-7.2s-1-.8-1.5-1.1,2.3,2,1.2.9-2-1.7-3-2.5c-2.2-1.9-4.2-3.9-6.2-6.1s-1.7-1.9-2.5-2.8-.9-1.1-1.4-1.7c-1.3-1.6,1.4,2.2.3.4-1.5-2.7-3.5-5.1-5.1-7.8s-1.6-2.8-2.3-4.3-.7-1.5-1.1-2.3-1.3-2.8-.5-1.1-.9-2.3-1.2-3.1c-.7-1.9-1.3-3.9-1.9-5.9-1-3.5-1.9-7.1-2.5-10.7s-.8-6.8-.5-3.1c-.2-1.8-.3-3.7-.4-5.5-.1-3,0-6,.2-8.9s.2-1.6.2-2.3c-.3,3.4-.2,1.3,0,.5.3-1.7.6-3.4,1-5.1.7-2.7,1.5-5.5,2.4-8.1s.5-1.4.8-2.1c-.2.4-1.4,3-.2.5s1.4-3,2.2-4.5c1.3-2.4,2.7-4.8,4.2-7s1.7-2.4,2.5-3.5c-1.9,2.7.2-.2,1-1.1,1.8-2.1,3.8-4.2,5.9-6.1s2.1-1.9,3.1-2.8,1.1-.9,1.6-1.3c-.7.6-2.1,1.6-.6.5,4.4-3.1,8.9-5.7,13.8-8-3.8,1.8-.2.1.9-.2s2.4-.8,3.6-1.1,2.1-.5,3.2-.8,1.2-.2,1.8-.4c3.2-.7-.8,0-.8,0,0-.5,6.5-.3,7.1-.3s4.2.5,1.5,0,1.6.3,2.3.5c1.1.3,2.2.6,3.3,1s1.5.4,1.6.6-3-1.5-1.6-.7,6,2.3,6.5,3.8-2.8-2.6-.9-.6.9.8,1.4,1.2c.8.8,1.6,1.6,2.3,2.4s.8,1,1.3,1.5c1.4,1.3-1.5-2.4-.5-.6s1.8,2.6,2.6,4c3.5,6,7.1,11.8,11.8,17,28.4,31.7,78.8,32.5,117.6,24.8.9-.2,1.8-.4,2.7-.6,7.9-1.9,12.6-10.8,10.5-18.5-2.2-8.1-10.5-12.4-18.5-10.5l.4.3Z"/>
        <path class="cls-3" d="M282.5,557.23c8.1,8.8,19,16,29.8,20.9,25.3,11.4,52.1,11.4,77.2-.5,16.8-7.9,31.3-20.9,43.3-34.9,14.1-16.5,30.5-36.8,29.8-59.8s-11.3-33.4-27.1-41.3c-17.1-8.6-36.2-8.6-54.1-2.3-23.1,8.2-42.1,24.7-58.8,42.1-16.3,16.9-32.5,36.3-42.5,57.7s-2.1,16.2,5.4,20.5c6.5,3.8,17.1,2,20.5-5.4,7.6-16.3,18.1-29.6,29.5-42.5,6.8-7.7,14-15,21.6-22s6.4-5.7,9.7-8.3,1.2-.9.7-.5c.8-.6,1.7-1.2,2.5-1.8,2.1-1.5,4.3-2.9,6.5-4.3,8.5-5.2,13.5-7.4,23.5-9.4,1-.2,2.1-.4,3.1-.5-.8.1-2.2.2.8,0s2.7-.2,4-.1,2.7.2,4.1.2c-4.4-.3.9.2,2.1.5s3,.9,4.5,1.3c3.5,1.1-2-1.2,1.3.5s2.8,1.4,4.1,2.3,1.2.8,1.7,1.2c2.5,1.6-2-2,.2.2s2,1.9,2.9,2.9.9,1,1.3,1.6c-2.3-2.6-.9-1.3-.5-.5.7,1.2,1.4,2.4,2,3.6-1.9-3.4.3,1,.6,2.4s.3,1.4.4,2.1c-.7-3.6-.1-1.1-.2,0s-.2,5.2,0,3.4-.3,1.7-.4,1.8c-.2.9-.4,1.7-.7,2.6s-.6,1.8-.9,2.7c-.9,2.8.8-1.1-.8,1.9-4.5,8.6-10.2,16.6-16.1,23.6-5.8,7-12.1,13.7-19,19.6-.7.6-5,4.1-2.8,2.4-1.4,1.1-2.8,2.1-4.2,3.1-3,2.1-6.1,4-9.3,5.7s-2.7,1.4-4.1,2.1-3.5,1.6-1.2.6-.2,0-.7.3c-2.9,1.1-5.8,2.1-8.8,2.8s-2.8.7-4.3,1-4.6,1.6-.7.2c-2.3.8-5.7.5-8.1.5s-4.9-.2-7.3-.4c-3.4-.3,3.6.7-.5,0s-2.4-.4-3.6-.7c-2.2-.5-4.3-1.1-6.4-1.7s-4.4-2.2-6.3-2.3c2.2.1,3,1.3,1.6.7s-1.3-.6-1.9-.9c-1-.5-2.1-1-3.1-1.5-1.9-1-3.8-2.1-5.7-3.2s-3.2-2-4.7-3.1-1.5-1.1-2.2-1.6c-2.8-2,2.4,1.9.9.7-2.6-2.2-5.4-4.4-7.7-6.9-5.5-6-15.7-5.6-21.2,0s-5.5,15.2,0,21.2l.3-.5Z"/>
      </g>
      <g>
        <path class="cls-3" d="M361,290.83c-3.2,7.2-7.6,13.9-12.3,20.2,2.7-3.7-.7.8-1.3,1.5-1.1,1.3-2.2,2.5-3.4,3.7s-2.4,2.4-3.7,3.6-6,4.7-2.6,2.3c-2.9,2-5.8,3.8-9,5.4s2.2-.4.2,0-1.7.6-2.5.8-1.7.5-2.6.7-4.9.4-.8.3c-1.9,0-3.7.2-5.5.1s-1.5-.1-2.3-.2c6,.4-5.8-.8-3.4-.5-4.5-.5-9-.2-13.5.7-7.5,1.6-14.8,5.8-19.9,11.4-11.7,12.8-14.7,30.4-12.2,47.1,6.2,41.7,54.3,66.1,92.7,51.1,6.1-2.4,11.8-5.2,17.1-9.2-.6.4,5.3-4.2,3.5-2.8-1.9,1.5,2-1.4,3.1-2.4s2-1.8,2.8-2.8c10-11.3,14-26.1,14.4-41,.4-13.5-2.6-26.8-5.7-39.9s-5.7-20.4-6.1-30.5c.2,5.1,0,0-.1-1.4s-.2-2.2-.2-3.3.1-3.1,0-4.6-1,5-.3,2.4,1.1-1.4-1.2,2.7-3.3,4-5,4.9c7.2-3.7,9.3-13.8,5.4-20.5s-13.3-9.1-20.5-5.4c-6.8,3.5-8.4,11.9-8.4,18.8.1,14.7,4,29.8,7.3,43.9,2.8,11.7,4.9,19.1,4.9,30.2,0,1.9,0,3.8-.2,5.7s-.2,1.9-.3,2.9c.2-3.4.3-1.6,0-.7-.6,3.3-1.5,6.4-2.5,9.6s1.6-2.9-.2.4-1.1,2-1.7,3-1.7,2-1.7,2.5c.1-2.4,2.5-2.9,1.4-1.8s-.7.9-1.1,1.3c-.8.8-1.8,1.5-2.5,2.4-1.2,1.4,4.1-3.1,2-1.6s-3,2.2-4.4,3.4c-2,1.8,3.5-2.5.8-.6s-4.1,2.8-6.3,4-2.8,1.4-4.3,2.1c3.5-1.6-1.1.3-2.5.8s-3.8,1.1-5.7,1.5-4.1.6-1.8.3-2,0-1.9,0c-2.1.1-4.2,0-6.3,0s-3.8-.5-1.2,0c-1.5-.2-3.1-.6-4.6-.9-5.5-1.3-9.1-2.9-13.9-5.7s-4.6-3.1-3.3-2.1-1-.9-1.1-1c-.8-.7-1.6-1.5-2.4-2.3s-4.1-5.2-1.9-2c-.9-1.3-1.8-2.6-2.6-4s-1.5-2.8-2.2-4.2c-1.6-3.2,1,3.1,0-.3s-.7-2-1-2.9c-.5-1.6-.9-3.3-1.2-5s-.4-2-.4-2c.1,0,.3,3.7.1.5s-.2-3-.2-4.4-.2-7.7,0-2.7c0-2.7,1.4-5.5,2-8.1s-1.7,2.9-.1.3.5-1.1.8-1.6.7-1.3,1.1-1.9c.2-.4.5-.7.7-1.1.9-1.3.6-.9-.8,1,0-.8,2.1-2.2,2.6-2.7,2.1-2.2-2.6,1.4.6-.4s1.3-.6,1.8-1c1.4-1.1-3.6.9-.9.4s1.1-.4,1.6-.5c.6-.2,1.1-.3,1.7-.4q1.2-.2-.2,0l-1.1.2c.6,0,1.2,0,1.9-.1h1.9c.6,0,4.4.4,0-.1,1.7.2,3.4.5,5.2.7,5,.6,9.7.2,14.6-.6,17.1-2.8,31.8-14.5,42.3-27.8s11.8-15.8,15.8-24.8,2.1-16.1-5.4-20.5-17.2-2.1-20.5,5.4l.6.1Z"/>
        <path class="cls-3" d="M388.7,380.83c25.7-2.4,48.6-19.1,56.8-43.9s4-21.6,2.8-32.2-4.6-31.5-13-43.8c-8.6-12.5-21.9-19-37-16.5s-21.5,9.2-28,18.6c-11.2,16.1-11.8,36.8-9.5,55.5s6.3,37.9,15,54.8c3.7,7.2,13.8,9.3,20.5,5.4s9.1-13.3,5.4-20.5-1.1-2.2-1.6-3.3c-1.2-2.4.4,1.3-.6-1.4s-2.2-6.3-3.2-9.5c-2-6.9-3.6-13.8-4.9-20.9s-.6-3.4-.8-5.2c.2,1.4-.2-2.3-.3-2.9-.4-3.7-.7-7.3-.7-11s0-6.6.4-9.9,0-.4,0,0c.1-.8.3-1.6.5-2.4.4-1.9.9-3.7,1.5-5.5s0-.6,1-2.5,1.6-3,2.5-4.5c1.6-2.7-.4,0-.3.2-.1-.2,1.9-2.1,2.1-2.3.4-.4,2.8-2.4.9-.9s.6-.3,1.1-.7c.7-.5,1.7-.8,2.4-1.3,1.4-1.1-1.7.9-1.5.6s1.4-.5,1.7-.6c.9-.2,1.8-.4,2.6-.7,2.4-.7-2.9,0-.4,0h2.7c0,.4-3.2-.9-1.8-.2s1.2.3,1.8.4,1.2.3,1.3.4c.2.4-2.6-1.8-1.4-.5s3.2,2.1,1.4.7.8.9,1.2,1.3.8.8,1.1,1.3c-.9-1.1-.9-1.5-.2-.1s1.3,2.3,1.9,3.5c1.1,2.2-.1-.7.7,1.9s2.1,6.4,2.9,9.7,1.4,5.5,1.9,8.3.4,2.6.7,3.9,0-.6,0-.8c0,.8.2,1.6.3,2.4.5,4.8.5,9.6.2,14.3s-.1,1-.1,1.5c0,1.8.2-1.7.2-1.6.2.6-.4,2.1-.5,2.8-.4,1.9-.9,3.8-1.4,5.6s-.6,1.6-.8,2.4c-.9,2.7.7-1.3.3-.6-.9,1.4-1.5,3-2.3,4.5s-2.5,2.9-2.5,3.7c0-.9,2.4-2.8.6-.8s-1.1,1.2-1.6,1.8c-.9,1-1.9,1.9-2.9,2.8s-1.1.8-1.5,1.3,3.1-2.2.7-.6-4.2,2.8-6.4,3.9-4.9,2.2-2,1-.9.3-1.8.6c-1.9.7-3.8,1.2-5.8,1.7s-2.7.5-4.1.8c-3,.6,4.7-.5,2.2-.3-7.8.7-15.4,6.4-15,15s6.6,15.8,15,15l-.4.3Z"/>
      </g>
      <g>
        <path class="cls-3" d="M247,229.13c5.9,13.2,16.9,26.8,30.1,33.1,6,2.9,12.3,4.7,19,4.6s3.2-.2,4.8-.4,2.2-.4,3.2-.4c-5.1.2-1.3.5-1,.2s1.1.1,1.4,0c1.6-.4-1.8.2-1.7-.3s4.5,1.4,1.5.2.3.4.8.6-2.4-2.2-.5-.3-1.1-2.3,0-.1.9,1.9,1.5,2.6c.9,1.3-.9-1.5-.7-1.5s.4,1.2.4,1.3c.2.8.3,1.9.7,2.7.7,1.5-.2-1.8-.2-1.7.1.3.1,1.1.1,1.4v3.9q0,1.3-.1,1.5c-.1.2.7-3.2.2-1.5s-.4,2-.7,3-.7,2-.9,2.9c-.4,1.5.5-1.1.5-1.2-.3.6-.6,1.3-.9,1.9-.6,1.1-1.4,2.1-2,3.2s.6-.8.7-.9c-.4.4-.7.8-1.1,1.2-.8.8-1.7,1.5-2.4,2.3-1,1.2.6-.5.8-.6-.7.4-1.3.9-1.9,1.3-3,1.9-4.7,2.5-8.1,3.4s-1.5.4-2.3.5c.3,0,2-.2.3,0s-3.2.1-4.9,0c-2.9,0,1.6.6-1.1-.1s-2.7-.6-4-1-3.7-1.5-1.7-.6-1.1-.6-1.6-.9c-1.3-.7-2.4-1.6-3.7-2.4s3.7,2.9,1,.8-2.4-1.9-3.6-2.8,3.3,3,2.4,1.9-1.2-1.2-1.7-1.7c-1.7-1.6,1,.7,1,1.4,0-.5-1.1-1.6-1.4-2.1s-.9-2-1-2c.6,0,1.2,3.7.3.5s-.5-1.8-.8-2.7-.6-4.2-.5-2.2,0-2.2,0-2.8v-4.1c0-1.4.2-3,.4-4.5-.2,1.7.6-2.8.8-3.6,2.6-12.2,6.3-24.5,6.8-37s-1.7-14.2-8-17.6-16.3-1.8-20.5,5.4-1.8,16.6,5.4,20.5c-2.1-1.1-4.1-3.5-5.2-5.1s-2.2-4.1-1.7-6.1c-.5,2-.1,4.9-.3,7s.6-3.4,0-.5-.4,2.5-.6,3.7c-.6,3.4-1.3,6.8-2.1,10.2-1.9,8.4-4,16.7-4.8,25.4-1,10.9.7,23.3,7,32.5s4.4,5.8,7.4,8.1c4.6,3.6-1.3-1.3.3.3s2.7,2.1,4,3.1,2.9,2,4.5,2.8c27.3,14.4,62.7,2.2,73.1-27.3,7.9-22.5-4.4-53.5-31.5-52.4-2.2,0-4.3.7-6.5.8,3.9-.2-.7-.2-1.7-.2s-2-.8.8.1c-.7-.2-1.4-.3-2.1-.5s-1-.4-1.5-.5c-1.7-.2,2.5,1.4.2.1s-2.5-1.3-3.6-2.1-.8-.7-1.3-.9c-1.6-.8,1.8,1.7.6.4-1.9-1.9-4-3.7-5.8-5.7s-3-3.8-1.6-1.9-.6-.9-1-1.4c-1.2-1.7-2.3-3.5-3.4-5.3s-1.9-3.5-2.8-5.3c-3.3-7.4-14.1-9.2-20.5-5.4s-8.7,13.1-5.4,20.5l.4.3Z"/>
        <path class="cls-3" d="M250.2,251.03c-1.9-.2,4,.9,3.1.4s-1.5-.3-2.1-.4c-1-.2-1.9-.5-2.8-.7s-5-1.9-2.1-.6.1,0-.5-.3-1.2-.6-1.8-1-1.4-.9-2.1-1.3-.7-.5-1-.7c-1.9-1.1,2.3,2.2,1.3,1s-2.5-2.4-3.6-3.6,2,3.3.2.1-1-1.8-1.5-2.6c-1.9-3.2.5,2.2,0-.1s-.7-2.2-1-3.3-1.3-4-.4-1.7,0,.4,0-.5-.1-1.7-.1-2.6v-4.5c0-1.5.5-4.7.2-2.9s.5-2.5.7-3.2c.5-2.2,1-4.3,1.6-6.4s.6-2,.9-3,1.4-3.3.6-1.7.8-1,.8-1.2c0-.9.2-.2-.6.6.4-.4,1.1-1,1.5-1.5-1.5,2-1.8,1.2-.6.6-.4.2-3.4,1-1,.4s-2.8.1-.9,0c3.1-.1-1.9-1.1,0-.1,3.5,1.8-1.5-1.4.6,0s1.1.7,1.6.9c2,1-1-.7-.9-.7.2,0,.8.8,1,.9,1.9,1.9.3-.4-.3-.7.5.2,1.1,1.8,1.4,2.2,2.3,3.7,0-.4.9,1.8s.6,2.1.9,3.2.5,3.6.3,1.7c.5,5,0,10.3-.6,15.3,0-.7.3-1.9-.2,1.3s-.4,2.3-.6,3.5c-.5,2.6-1.1,5.2-1.8,7.7s-1.3,4.7-2.2,7.1-.7,1.9-1,2.8c.9-2.3-.3.4-.6,1.2-3.7,7.2-1.9,16.3,5.4,20.5s16.8,1.9,20.5-5.4c5.2-10.3,8.2-21.6,9.8-33s2.6-25.7-2.6-37.9c-8.1-19.2-31.9-30.1-49.4-15.2s-11.5,17.8-13.5,27.8-2.5,18.5-.8,27.8,10.4,24,21.5,30.7,14.4,6.4,22.1,7.1,15.3-7.4,15-15-6.6-14.2-15-15l-.3.2Z"/>
      </g>
      <path class="cls-1" d="M558.46,96.29l.05.05c-.3,0,19.23-1.07-.05-.05Z"/>
      <path class="cls-1" d="M41.75,649.48l-.05-.05c.3,0-19.23,1.07.05.05Z"/>
      <path class="cls-1" d="M543.36,664.99c.01-.21,0-.42.03-.63-.17,2.05-2.49,25.82-.03.63Z"/>
      <path class="cls-1" d="M473.6,479.33c-17.6-29-26-63.8-23.2-97.6,2.9-34.4,16-66.5,38-93.1,19.77-23.95,46.3-41.17,75.37-50.54-3.09-25.11-6.53-50.27-9.77-75.36-2.84-21.97-5.68-44-8.51-66-16.78.3-33.73-.4-50.49-.4H55.25c-2.84,28.25-6.64,56.39-9.84,84.6-3.3,28.8-2.2,15.8-9.9,86.6s-7.2,142.1.7,212.8c3.8,34.1,7.6,68.1,11.4,102.1,2.44,22.25,4.93,44.43,7.39,66.6,16.69-.29,33.55.4,50.21.4h439.78c2.94-26.33,6.86-52.65,10.12-78.9.93-7.34,1.87-14.66,2.8-21.99-4.23-1.49-8.34-3.12-12.3-4.91-29.7-13.4-55.1-36.5-72-64.3Z"/>
      <path class="cls-2" d="M41.65,66.03s.06,0,.05,0c-.02,0-.03,0-.05,0Z"/>
      <path class="cls-3" d="M558.46,96.29l-14.95-14.95c.66,5.13,1.32,10.27,1.99,15.4,4.05-.07,8.09-.18,12.11-.4.29-.02.58-.03.85-.05Z"/>
      <path class="cls-3" d="M41.75,649.48l14.95,14.95c-.56-5.13-1.14-10.27-1.71-15.4-4.14.07-8.27.18-12.39.4-.29.02-.58.03-.85.05Z"/>
      <path class="cls-2" d="M543.4,664.23s0,.09,0,.13c0-.11.01-.16,0-.13Z"/>
      <path class="cls-3" d="M56.7,81.33l-15,15h13.54c.44-4.4.87-8.8,1.26-13.2,0-.6.1-1.2.2-1.8Z"/>
      <path class="cls-3" d="M40.44,66.09c.4-.03.8-.06,1.21-.06-1.02.04-17.72.53-1.21.06Z"/>
      <path class="cls-3" d="M558.5,649.03v.4s-13.52,0-13.52,0c-.49,4.37-.96,8.73-1.38,13.1-.09.87-.16,1.69-.24,2.46-.33,6.72,6.22,13.01,12.72,14.07.51-.01,1.01-.02,1.52-.03h.9c3.83,0,7.62-1.67,10.43-4.33,2.48-2.65,3.97-6.28,4.47-10.47.02-.18.04-.36.07-.54-.56-7.95-6.69-14.66-14.97-14.66Z"/>
      <path class="cls-3" d="M555.1,570.53c-3.26,26.25-7.17,52.57-10.12,78.9h13.52v-.4c8.28,0,14.41,6.71,14.97,14.66,3.28-26.12,6.46-52.24,9.73-78.36,1.15-9.13,2.39-19.07,3.68-29.39-10.03-1.67-19.78-4.17-28.98-7.4-.93,7.33-1.87,14.65-2.8,21.99Z"/>
      <path class="cls-3" d="M26.79,664.86c.49,4.5,2.77,24.59,0,0h0Z"/>
      <path class="cls-3" d="M568.93,674.7c2.91-2.75,4.78-6.55,4.57-10.67,0-.12-.02-.23-.03-.34-.02.18-.04.36-.07.54-.5,4.18-1.99,7.82-4.47,10.47Z"/>
      <path class="cls-3" d="M557.6,679.03c-.5.01-1.01.02-1.52.03.78.13,1.55.2,2.32.17,4.52-.2,8.03-1.86,10.53-4.53-2.81,2.66-6.59,4.33-10.43,4.33h-.9Z"/>
      <path class="cls-3" d="M543.36,664.99c-2.46,25.19-.13,1.42.03-.63,0-.04,0-.09,0-.13,0-.03,0,.02,0,.13-.02.21-.02.42-.03.63.08-.78.16-1.59.24-2.46.43-4.37.89-8.73,1.38-13.1H105.2c-16.67,0-33.52-.69-50.21-.4.57,5.13,1.15,10.27,1.71,15.4l-14.95-14.95c-19.28,1.02.25-.05-.05-.05l.05.05c.28-.01.56-.03.85-.05,4.11-.22,8.25-.33,12.39-.4-2.46-22.17-4.95-44.35-7.39-66.6-3.8-34-7.6-68-11.4-102.1-7.9-70.7-8.4-142-.7-212.8s6.6-57.8,9.9-86.6c3.2-28.21,7-56.35,9.84-84.6h-13.54l15-15c-.1.6-.2,1.2-.2,1.8-.39,4.4-.81,8.8-1.26,13.2h439.76c16.76,0,33.71.7,50.49.4-.66-5.13-1.32-10.27-1.99-15.4l14.95,14.95c19.28-1.02-.25.05.05.05l-.05-.05c-.28.01-.56.03-.85.05-4.02.21-8.07.33-12.11.4,2.84,22,5.68,44.03,8.51,66,3.23,25.09,6.68,50.25,9.77,75.36,9.51-3.06,19.29-5.29,29.19-6.62-2.28-18.08-4.79-36.15-7.16-54.24-4.4-33.6-8.1-62.9-12.2-94.4,0-.6-.2-1.2-.2-1.8-1-8-6-15-15-15H105.2c-20.8,0-41.8-.6-62.6,0-.78.02-1.49.04-2.16.06-8.04.63-12.88,7.23-13.74,14.94-3.2,27.9-6.4,55.8-9.5,83.7-3.1,27.9-7.3,64.2-11,96.3-8.1,71.6-8.3,144-.4,215.7,3.3,29.8,6.6,59.7,10,89.5,3.6,32,7.1,64.1,10.7,96.1.1.9.2,1.73.28,2.53-.06-.58-.1-.9-.08-.83.9,8.1,6.1,15,15,15h453.3c20.3,0,40.78.56,61.08.03-6.51-1.06-13.06-7.35-12.72-14.07Z"/>
      <path class="cls-3" d="M507.86,476.69c.16.2.31.4.44.54.23.27-.15-.19-.44-.54Z"/>
      <path class="cls-3" d="M561.73,518.18s0-.02,0-.03c-.61-.23-1.14-.4,0,.03Z"/>
      <path class="cls-3" d="M721.04,475.82s-.01.01-.02.02c-.14.19-.19.26.02-.02Z"/>
      <path class="cls-3" d="M481,412.43c0,.07,0,.17.02.3,0-.01,0-.06-.02-.3Z"/>
      <path class="cls-3" d="M738.3,446.13c-.04.07-.06.14-.1.21-.35.8-.99,2.6.1-.21Z"/>
      <path class="cls-3" d="M481.06,413.09c-.02-.13-.03-.25-.04-.37,0,.02-.03-.07.04.37Z"/>
      <path class="cls-3" d="M721.4,313.03c-.09-.12-.28-.37-.45-.59.05.07.1.14.16.21.09.11.18.24.29.38Z"/>
      <path class="cls-3" d="M481.17,413.76c-.05-.3-.09-.52-.11-.67.06.46.13.91.11.67Z"/>
      <path class="cls-3" d="M561.74,518.15s0,.02,0,.03c.18.07.4.15.67.25-.11-.04-.21-.1-.32-.14-.11-.05-.23-.09-.34-.14Z"/>
      <path class="cls-3" d="M763.7,409.33c-.32.02-.63,0-.95-.01-3.55,35.62-19.61,67.54-43.72,91.34,3.23,3.88,6.42,7.75,9.65,11.63,25.01-24.26,42.51-56.22,47.81-91.16,1.4-8.9,2.2-17.8,2.3-26.7,0-.72-.05-1.42-.13-2.11.01.67.03,1.34.03,2.01,0,8.4-6.9,14.6-15,15Z"/>
      <path class="cls-3" d="M464.7,394.33c0-65.52,42.18-121.18,100.86-141.33-.16-1.36-.29-2.71-.46-4.07-.43-3.61-.89-7.22-1.33-10.84-29.06,9.36-55.6,26.59-75.37,50.54-22,26.6-35.1,58.7-38,93.1-2.8,33.8,5.6,68.6,23.2,97.6,16.9,27.8,42.3,50.9,72,64.3,3.96,1.79,8.07,3.42,12.3,4.91.64-5,1.27-9.99,1.91-14.99-55.67-21.72-95.11-75.87-95.11-139.22Z"/>
      <path class="cls-3" d="M695.87,519.38c-23.49,15.39-51.58,24.35-81.77,24.35-8.67,0-17.16-.75-25.43-2.16-.61,4.85-1.2,9.65-1.79,14.37,19.94,3.32,40.98,3.37,60.92-.61,20.77-4.14,40.33-12.55,57.68-24.23-2.86-3.46-5.72-6.91-8.58-10.37-.37-.44-.71-.89-1.03-1.35Z"/>
      <path class="cls-3" d="M763.8,379.43c-.35.02-.69.06-1.03.1.48,4.87.73,9.81.73,14.8s-.25,10.06-.75,14.99c.31,0,.63.03.95.01,8.1-.4,15-6.6,15-15,0-.67-.02-1.34-.03-2.01-.93-7.79-7.43-13.26-14.87-12.89Z"/>
      <path class="cls-3" d="M614.1,244.93c77.52,0,141.24,59.04,148.67,134.6.34-.04.68-.08,1.03-.1,7.44-.37,13.94,5.1,14.87,12.89-1.13-68.09-44.6-128.92-108.37-152.59-24.88-9.23-51.53-11.74-77.34-8.26.62,4.9,1.22,9.8,1.79,14.71,6.33-.82,12.79-1.24,19.35-1.24Z"/>
      <path class="cls-3" d="M565.1,248.93c.16,1.36.3,2.71.46,4.07,9.35-3.21,19.11-5.52,29.2-6.83-.58-4.9-1.17-9.81-1.79-14.71-9.9,1.34-19.68,3.56-29.19,6.62.44,3.61.9,7.23,1.33,10.84Z"/>
      <path class="cls-3" d="M559.81,533.55c-.63,5-1.27,9.99-1.91,14.99,9.19,3.23,18.94,5.73,28.98,7.4.59-4.73,1.19-9.53,1.79-14.37-10-1.71-19.65-4.42-28.87-8.01Z"/>
      <path class="cls-2" d="M632.51,261.21c1.35.15.38.04,1.09.12-1.69-.23-1.58-.19-1.09-.12Z"/>
      <path class="cls-2" d="M562,270.53c2.1-1-2.1.8,0,0h0Z"/>
      <path class="cls-2" d="M632.51,261.21c.35.05.88.12,1.09.12-.71-.08.26.03-1.09-.12Z"/>
      <path class="cls-2" d="M507.86,476.69s-.07-.1-.11-.14c-.3-.36-.13-.15.11.14Z"/>
      <path class="cls-2" d="M490.44,446.98c-1.3-2.78.61,1.8,0,0h0Z"/>
      <path class="cls-2" d="M490.3,342.03c2.8-6.8-.9,2,0,0h0Z"/>
      <path class="cls-2" d="M532.3,501.02c-.12-.09-.25-.19-.4-.29.16.12.29.21.4.29Z"/>
      <path class="cls-2" d="M481.02,412.73c.01.11.03.24.04.37.02.15.06.37.11.67-.01-.14-.06-.53-.17-1.33.03.23.02.28.02.3Z"/>
      <path class="cls-2" d="M666.6,270.43c1.7.6-2-.9,0,0h0Z"/>
      <path class="cls-2" d="M738.3,446.13c-.03.06-.06.13-.1.21.03-.07.06-.14.1-.21Z"/>
      <path class="cls-2" d="M738.2,342.03c1,2.1-.8-2.1,0,0h0Z"/>
      <path class="cls-3" d="M695.15,501.64c-5.21,3.84-10.6,7.34-16.25,10.49-6.1,3.4-6.2,3.3-9.4,4.8s-5.3,2.3-2.5,1.1c-2,.8-4.1,1.6-6.2,2.4-6.9,2.5-14.1,4.5-21.3,5.9-1.8.4-3.6.7-5.3,1s-3.3.5-1.4.2-1,.1-1.4.2c-3.9.4-7.8.7-11.7.9-7.7.3-15.3,0-22.9-.9s-3.3-.5-1.4-.2-1-.2-1.4-.2c-1.17-.2-2.33-.4-3.47-.62-.62,4.97-1.24,9.93-1.85,14.86,8.26,1.42,16.76,2.16,25.43,2.16,30.19,0,58.27-8.96,81.77-24.35-3.77-5.37-4.56-12.24-.72-17.74Z"/>
      <path class="cls-2" d="M507.9,312.03c-.3.4-1.6,2.2,0,0h0Z"/>
      <path class="cls-2" d="M721.11,312.65c-.06-.07-.11-.14-.16-.21-.37-.48-.67-.86.16.21Z"/>
      <path class="cls-3" d="M748.71,394.4l-.2-.07c0,3.7-.1,7.4-.4,11.2s-.3,3.7-.5,5.5c-.13,1.19-.18,1.59-.22,1.99.12-.72.17-.97-.08.71.03-.31.06-.51.08-.71-.12.74-.33,1.96-.38,2.11-1.2,7.3-3,14.5-5.3,21.6s-2.2,6.3-3.4,9.4c-1.09,2.81-.45,1.02-.1.21-.35.73-.64,1.46-1,2.19-.9,2-1.9,4-2.9,5.9-3.3,6.4-7,12.6-11.2,18.5-1.12,1.57-1.71,2.4-1.99,2.79.08-.09.07-.08-.07.1-.2.29-.15.22-.02.02-.06.07-.13.16-.22.28-.15.19-.25.31-.31.4-.22.29-.43.58-.49.7-.5.7-1.1,1.4-1.7,2-2.4,2.8-4.8,5.6-7.4,8.3s-4.9,4.9-7.5,7.2c-1.37,1.21-2.01,1.78-2.51,2.21,5.86-2.41,13.96-1.3,17.21,2.59.32.38.62.75.94,1.13,24.11-23.8,40.17-55.72,43.72-91.34-7.66-.21-14.01-7.45-14.05-14.92Z"/>
      <path class="cls-3" d="M748.8,394.43l-.1-.03c.04,7.47,6.39,14.71,14.05,14.92.49-4.93.75-9.93.75-14.99s-.25-9.93-.73-14.8c-7.65.85-13.97,6.86-13.97,14.9Z"/>
      <path class="cls-3" d="M561.74,518.15s0-.01,0-.02c-.98-.43-1.96-.9-2.94-1.3-6.6-3-12.9-6.6-18.9-10.5-5.67-3.69-5.45-3.71-7.6-5.31-.11-.08-.23-.17-.4-.29.14.1.27.2.4.29,1.38,1.01-1.85-1.43-2.5-1.99-1.7-1.4-3.3-2.8-4.9-4.3-5.3-4.8-10.3-10-14.9-15.5-1.33-1.59-1.98-2.37-2.25-2.69.04.05.07.1.11.14.29.35.67.82.44.54-.13-.15-.28-.34-.44-.54-.24-.29-.41-.5-.11-.14-.56-.73-1.06-1.45-.25-.41,1.1,1.4-.6-.8-.8-1.1-.5-.7-1-1.4-1.5-2.1-2.1-3-4.2-6.1-6.1-9.3s-3.5-6.1-5.1-9.2-1.6-3.1-2.3-4.7-.7-1.6-1.1-2.4c-.06-.13-.11-.25-.16-.35.61,1.8-1.3-2.78,0,0-.07-.22-.18-.52-.34-.95-2.6-6.7-4.8-13.4-6.5-20.3s-1.6-7-2.2-10.6c-.1-.59-.17-1.03-.23-1.37.02.24-.05-.21-.11-.67-.07-.44-.05-.35-.04-.37-.01-.12-.02-.23-.02-.3-.3-2.3-.5-4.6-.7-6.9-.6-7.7-.5-15.3,0-23s.3-3.7.5-5.5.5-3.3.2-1.4.2-1,.2-1.4c.6-3.8,1.4-7.6,2.3-11.3,1.7-7.1,4-14.1,6.8-20.9-.9,2,2.8-6.8,0,0,.9-2,.7-1.6,1.1-2.4.7-1.6,1.5-3.2,2.3-4.8,1.7-3.3,3.5-6.6,5.4-9.8,1.9-3.2,3.7-5.9,5.7-8.8,2-2.9,2-2.8,3.1-4.2.8-1,1.6-2,2.5-3,4.6-5.5,9.6-10.7,15-15.4,5.4-4.7,2.6-2.3,4-3.4,1.4-1.1,1.3-1.1,2-1.7.7-.6,2.5-1.9,1.1-.8-1.4,1.1,2.1-1.5,2.7-1.9,1.8-1.3,3.6-2.5,5.4-3.7,6.1-3.9,12.4-7.4,19-10.5.8-.4,1.6-.7,2.4-1.1-2.1.8,2.1-1,0,0,2.1-.8,3.3-1.3,5-1.9.08-.03.15-.05.23-.08-.52-5.19-1.08-10.37-1.68-15.55-58.68,20.15-100.86,75.81-100.86,141.33s39.44,117.5,95.11,139.22c.65-5.12,1.29-10.25,1.92-15.37-1.14-.43-.6-.26,0-.03Z"/>
      <path class="cls-3" d="M597.7,261.03c7.4-.8,14.8-1.1,22.2-.8,7.4.3,7.4.4,11,.8.75.08,1.26.14,1.61.18-.49-.07-.61-.11,1.09.12,2.2.4,4.5.8,6.7,1.2,7.2,1.5,14.3,3.5,21.3,6s3.3,1.3,5,1.9c-2-.9,1.7.6,0,0,2,.9,1.6.7,2.4,1.1,3.4,1.6,6.7,3.2,10,5.1,3.3,1.9,6.1,3.5,9,5.4q2.9,1.9,4.3,2.9t2.1,1.5c.7.5,3.1,2.3,1.6,1.2s.7.6,1.1.8c.7.5,1.4,1.1,2,1.7,1.3,1.1,2.7,2.2,4,3.4,2.8,2.5,5.4,5,8,7.7s4.7,5.1,7,7.7c1.93,2.18,2.17,2.6,2.85,3.51.17.23.36.47.45.59.8,1.1,1.5,2.1,2.3,3.2,4.1,5.9,7.9,12.1,11.1,18.6.8,1.6,1.6,3.2,2.3,4.8s.7,1.6,1.1,2.4c-.8-2.1,1,2.1,0,0,1.4,3.5,2.7,7,3.9,10.6,2.3,7.1,4,14.3,5.2,21.6s.5,3.3.2,1.4.1,1,.2,1.4c.2,1.8.4,3.7.5,5.5.3,3.9.4,7.9.5,11.8,0,.02,0,.05,0,.07l.1.03c0-8.04,6.33-14.05,13.97-14.9-7.43-75.56-71.15-134.6-148.67-134.6-6.56,0-13.01.43-19.35,1.24.59,5.02,1.16,10.04,1.69,15.07.58-.09,1.16-.18,1.26-.21Z"/>
      <path class="cls-2" d="M721.6,475.03c-.43.61-1.54,2.03-1.11,1.5.24-.32.49-.64.61-.79.27-.39.71-1,.5-.71Z"/>
      <path class="cls-2" d="M721.12,475.72s-.05.07-.07.1c.15-.19.15-.2.07-.1Z"/>
      <path class="cls-2" d="M747.38,413.02c-.02.2-.04.41-.08.71.25-1.68.2-1.43.08-.71Z"/>
      <path class="cls-2" d="M721.4,313.03c-.11-.14-.21-.27-.29-.38.09.12.19.24.29.38Z"/>
      <path class="cls-2" d="M721.02,475.85s.01-.01.02-.02c.02-.03.05-.07.07-.1,0,0,0,.01-.02.02-.03.04-.05.07-.08.11Z"/>
      <path class="cls-2" d="M720.49,476.53c.07-.08.17-.21.31-.4.1-.12.17-.21.22-.28.02-.03.05-.07.08-.11-.12.15-.37.47-.61.79Z"/>
      <path class="cls-3" d="M577.8,265.13c3.6-1,7-1.8,10.5-2.5s3.6-.7,5.3-1,1.8-.3,2.7-.4c-2.18.33-1,.18.14.01-.53-5.03-1.1-10.05-1.69-15.07-10.08,1.3-19.85,3.62-29.2,6.83.6,5.18,1.16,10.36,1.68,15.55,3.52-1.27,7.05-2.44,10.57-3.42Z"/>
      <path class="cls-3" d="M588.7,526.33c-3.7-.7-7.5-1.6-11.1-2.7s-6.8-2.1-10.2-3.3-3.3-1.3-5-1.9c-.27-.1-.49-.18-.67-.25-.64,5.12-1.27,10.25-1.92,15.37,9.21,3.6,18.87,6.3,28.87,8.01.61-4.92,1.23-9.89,1.85-14.86-.61-.12-1.23-.24-1.83-.38Z"/>
      <path class="cls-2" d="M561.74,518.14s0,.01,0,.02c.12.04.23.09.34.14-.11-.05-.23-.1-.34-.15Z"/>
      <path class="cls-2" d="M562.4,518.43c-.08-.04-.2-.09-.32-.14.11.05.21.1.32.14Z"/>
      <path class="cls-3" d="M817.1,619.13c-28.9-35-57.9-69.9-86.8-104.9-.54-.65-1.07-1.3-1.61-1.94-3.58,3.47-7.31,6.78-11.19,9.92l89,107.52-89-107.52c-3.87,3.14-7.88,6.11-12.02,8.89,26.06,31.52,52.18,62.99,78.22,94.53,4.1,4.9,8.1,9.8,12.2,14.7s15.9,5.4,21.2,0c6.2-6.2,5.2-15,0-21.2Z"/>
      <path class="cls-3" d="M695.15,501.64c.08-.06.16-.11.24-.17.18-.14,1.65-1.24,2.12-1.64q.7-.6,2-1.7c.62-.52.94-.8,1.39-1.19-1.52.62-2.9,1.47-3.99,2.59-.67.67-1.25,1.38-1.75,2.11Z"/>
      <path class="cls-3" d="M707.9,510.61l9.6,11.6c3.87-3.14,7.61-6.45,11.19-9.92-3.22-3.88-6.42-7.75-9.65-11.63-3.54,3.5-7.26,6.82-11.14,9.95Z"/>
      <path class="cls-3" d="M707.9,510.61c-3.86,3.11-7.87,6.04-12.03,8.77.32.46.67.92,1.03,1.35,2.86,3.46,5.72,6.91,8.58,10.37,4.14-2.78,8.15-5.75,12.02-8.89l-9.6-11.6Z"/>
      <path class="cls-3" d="M718.1,499.53c-3.26-3.89-11.35-4.99-17.21-2.59-.45.39-.77.66-1.39,1.19q-1.3,1.1-2,1.7c-.47.4-1.94,1.5-2.12,1.64.34-.25.68-.49,1.02-.74-.87.64-1.11.81-1.02.74-.08.06-.16.11-.24.17-3.84,5.5-3.05,12.37.72,17.74,4.16-2.72,8.17-5.65,12.03-8.77l-.4-.48.4.48c3.88-3.13,7.6-6.45,11.14-9.95-.31-.38-.62-.75-.94-1.13Z"/>
      <path class="cls-3" d="M696.4,500.73c-.34.25-.68.49-1.02.74-.09.07.14-.1,1.02-.74Z"/>
    </g>
  </g>
</svg>