<?xml version="1.0" encoding="UTF-8"?>
<svg id="Layer_2" data-name="Layer 2" xmlns="http://www.w3.org/2000/svg" viewBox="0 0 658.44 753.97">
  <defs>
    <style>
      .cls-1 {
        fill: #fff;
      }
    </style>
  </defs>
  <g id="Layer_1-2" data-name="Layer 1">
    <g>
      <path class="cls-1" d="M597.1,87.71c-80.52-5.94-158.98-28.31-230.53-65.72L327.59,1.61l-30.97,16.47c-74.03,39.37-155.51,62.75-239.15,68.61l-51.2,3.59L1.86,385.25c0,165.91,137.13,357.84,318.49,367.14h0c188.24-9.3,325.73-173.51,336.08-352.88V92.09s-59.34-4.38-59.34-4.38ZM623.59,400.4c-9.29,161.1-132.78,308.58-301.84,316.93h0c-162.88-8.36-286.05-180.73-286.05-329.74l3.96-264.92,45.98-3.22c75.12-5.27,148.3-26.26,214.79-61.62l27.82-14.8,35,18.3c64.26,33.61,134.72,53.69,207.04,59.03l53.3,3.93v276.1Z"/>
      <g>
        <path class="cls-1" d="M597.1,85.84c-55.53-4.18-110.36-16.12-162.55-35.58-35.02-13.05-67.85-30.32-100.88-47.59-2.39-1.25-4.87-3.4-7.52-2.41-5.31,1.99-10.42,5.54-15.42,8.2-15.66,8.33-31.31,16.63-47.45,24-50.11,22.87-103.39,38.72-157.84,47.04-32.82,5.01-66.06,6.59-99.16,8.91-1.02.07-1.86.8-1.88,1.88-.47,31.38-.94,62.77-1.41,94.15-.77,51.76-1.55,103.53-2.32,155.29L.03,382.32c-.37,25.04,2.62,50.16,7.95,74.6,15.73,72.18,52.4,140.29,103.08,193.93,50.7,53.67,117.53,93.17,191.62,101.91,9.35,1.1,18.35,1.59,27.73.85,9.37-.74,18.71-1.88,27.99-3.4,18.92-3.1,37.56-7.86,55.65-14.19,34.99-12.25,67.76-30.38,97.02-53.11,58.83-45.7,102.78-109.43,126.85-179.77,11.29-33.01,19.39-68.75,20.39-103.75.28-9.79,0-19.62,0-29.41,0-49.35,0-98.7,0-148.06,0-41.06,0-82.11,0-123.17,0-2.22,0-4.45,0-6.67,0-1.07-.86-1.8-1.88-1.88-19.78-1.46-39.56-2.92-59.34-4.38-2.41-.18-2.4,3.57,0,3.75,19.78,1.46,39.56,2.92,59.34,4.38l-1.88-1.88c0,29.72,0,59.45,0,89.17,0,52.16,0,104.32,0,156.49v51.35c0,18-1.89,35.82-4.99,53.57-12.84,73.64-47.05,143.48-98.08,198.2s-119.06,93.26-193.39,105.62c-10.12,1.68-20.32,2.87-30.55,3.6-8.81.62-17.45-.14-26.21-1.22-18.48-2.28-36.71-6.55-54.33-12.53-35.15-11.93-67.8-30.77-96.62-54.09-58.14-47.04-102.06-111.89-126.44-182.44-11.76-34.01-19.05-69.73-20.08-105.75-.3-10.43.05-20.87.21-31.3.71-47.48,1.42-94.95,2.13-142.43.61-41.09,1.23-82.17,1.84-123.26.03-2.26.07-4.52.1-6.78l-1.88,1.88c26.06-1.83,52.24-3.09,78.19-6.1,54.46-6.31,108.01-20.05,158.74-40.85,19.96-8.19,39.36-17.53,58.41-27.66,6.21-3.3,12.43-6.61,18.64-9.91,2.2-1.17,5.04-2.17,7-3.72.17-.14,1.21-.46,1.26-.67-.46,2.27-2.72-1.16-.95.46,1.46,1.33,4.12,2.16,5.86,3.07l9.19,4.81c6.16,3.22,12.33,6.45,18.49,9.67,18.18,9.51,36.67,18.34,55.67,26.09,57.46,23.44,118.46,37.6,180.32,42.26,2.41.18,2.4-3.57,0-3.75Z"/>
        <path class="cls-1" d="M621.71,400.4c-2.94,49.27-16.48,97.72-39.38,141.44-22.41,42.77-53.63,80.99-91.84,110.6-38.84,30.11-84.67,50.76-133.14,59.11-11.93,2.05-24.82,4.32-36.97,3.83-12.44-.5-24.94-2.43-37.1-5.06-23.36-5.07-45.89-13.57-66.97-24.82-43.12-23.01-79.94-57.05-108.73-96.36-28.58-39.02-49.87-83.66-61.25-130.72-6.61-27.34-8.99-54.96-8.57-82.99.4-26.81.8-53.61,1.2-80.42.52-34.45,1.03-68.91,1.55-103.36.33-21.91.66-43.82.98-65.73.02-1.08.03-2.16.05-3.24l-1.88,1.88c32.28-2.26,64.64-3.89,96.61-9.18,57.64-9.54,113.53-28.58,165.13-55.94,5.21-2.76,10.41-5.53,15.61-8.3l9.06-4.82c.56-.3,2.23-.83,2.57-1.37.6-.95-1.32-.8-.9-.06.54.97,4.1,2.15,5.02,2.63l10.28,5.38c5.98,3.13,11.95,6.25,17.93,9.38,49.19,25.71,102.06,43.95,156.76,53.47,34.97,6.09,70.49,7.83,105.84,10.43l-1.88-1.88c0,31.12,0,62.25,0,93.37,0,49.57,0,99.15,0,148.72,0,11.33,0,22.67,0,34,0,2.41,3.75,2.42,3.75,0,0-31.12,0-62.25,0-93.37,0-49.57,0-99.15,0-148.72,0-11.33,0-22.67,0-34,0-1.07-.86-1.8-1.88-1.88-28.98-2.14-58.19-3.49-86.99-7.5-58.88-8.19-116.32-26.34-169.18-53.53-11.37-5.85-22.67-11.84-34-17.77-3.41-1.78-4.68-2.96-8.17-1.11l-18.55,9.86c-46.43,24.69-95.15,43.65-146.67,54.68-39.74,8.51-79.97,10.91-120.37,13.74-1.02.07-1.86.8-1.88,1.88-.24,16.24-.49,32.48-.73,48.73-.51,34.38-1.03,68.76-1.54,103.14-.45,30.35-.91,60.71-1.36,91.06-.35,23.57-.11,46.73,3.74,70.14,7.85,47.7,26.37,93.66,52.21,134.42s60.39,77.93,101.31,104.89c20.02,13.19,41.67,23.97,64.42,31.6,11.44,3.83,23.15,6.86,35.03,8.99,11.45,2.06,23.56,4.07,35.21,3.33,49.57-3.16,97.86-18.76,140.03-44.99,41.08-25.56,75.93-60.6,102.35-101.05,27-41.34,45.28-88.42,53.14-137.17,1.89-11.71,3.17-23.51,3.88-35.35.14-2.41-3.61-2.4-3.75,0Z"/>
      </g>
    </g>
    <path class="cls-1" d="M329.15,258.61c-65.38,0-118.39,53-118.39,118.39s53,118.39,118.39,118.39,118.39-53,118.39-118.39-53-118.39-118.39-118.39ZM394.23,370.99l-58.6,58.6c-7.43,7.43-18.62,8.91-27.57,4.48-2.92-1.24-5.64-3.08-7.95-5.52l-28.58-30.17c-9.05-9.55-8.64-24.78.91-33.83h0c9.55-9.05,24.78-8.64,33.83.91l12.55,13.24,41.57-41.57c9.31-9.31,24.54-9.31,33.84,0h0c9.31,9.31,9.31,24.54,0,33.84Z"/>
  </g>
</svg>